<?xml version="1.0" encoding="UTF-8"?>
<svg xmlns="http://www.w3.org/2000/svg" version="1.1" viewBox="0 0 2000 2000">
  <!-- Generator: Adobe Illustrator 30.3.0, SVG Export Plug-In . SVG Version: 2.1.3 Build 182)  -->
  <defs>
    <style>
      .st0 {
        fill: #fff;
      }

      .st1 {
        fill: #eb9447;
      }

      .st2 {
        fill: #093631;
      }

      .st3 {
        fill: #ca6608;
      }
    </style>
  </defs>
  <g id="Logo">
    <g>
      <g>
        <g>
          <path class="st2" d="M444.84,1385.21c3.1,0,5.97-.56,8.62-1.7,2.65-1.13,4.97-2.63,6.97-4.5,2-1.87,3.68-4,5.04-6.39,1.36-2.39,2.29-4.87,2.81-7.46h.97l-1.16,12.01c-.97,1.03-2.15,2.13-3.53,3.29-1.39,1.16-3.08,2.2-5.08,3.1-2,.91-4.31,1.66-6.92,2.28-2.61.61-5.66.92-9.15.92-6.2,0-11.49-1-15.88-3-4.39-2-8.01-4.63-10.85-7.89-2.84-3.26-4.92-6.99-6.25-11.19-1.32-4.2-1.99-8.49-1.99-12.88s.66-8.68,1.99-12.88c1.32-4.2,3.4-7.92,6.25-11.18,2.84-3.26,6.45-5.89,10.85-7.89,4.39-2,9.68-3,15.88-3,3.61,0,6.78.34,9.49,1.02,2.71.68,5.07,1.5,7.07,2.47,2,.97,3.66,2,4.99,3.1,1.32,1.1,2.37,2.1,3.15,3l1.16,12.01h-.97c-.65-2.97-1.71-5.68-3.2-8.14-1.49-2.45-3.26-4.57-5.33-6.34-2.07-1.78-4.37-3.15-6.92-4.12-2.55-.97-5.21-1.45-7.99-1.45-3.62,0-7.04.74-10.27,2.23-3.23,1.49-6.07,3.66-8.52,6.54-2.45,2.87-4.41,6.38-5.86,10.51-1.45,4.13-2.18,8.85-2.18,14.14s.73,10.01,2.18,14.14c1.45,4.13,3.4,7.64,5.86,10.51,2.45,2.87,5.29,5.05,8.52,6.54,3.23,1.49,6.65,2.23,10.27,2.23Z"/>
          <path class="st2" d="M513.6,1381.92c0,.52.1.97.29,1.36s.45.73.77,1.02c.32.29.81.44,1.45.44v.97h-9.59c-.52,0-.97-.19-1.36-.58s-.58-.84-.58-1.36v-6.68c-.71,1.94-1.6,3.52-2.66,4.75-1.07,1.23-2.2,2.21-3.39,2.95-1.2.74-2.44,1.26-3.73,1.55-1.29.29-2.52.44-3.68.44h-1.65c-.91,0-1.99-.06-3.24-.19-1.26-.13-2.6-.4-4.02-.82-1.42-.42-2.73-1.05-3.92-1.89-1.2-.84-2.18-1.94-2.95-3.29s-1.16-3.07-1.16-5.13.44-3.86,1.31-5.37c.87-1.52,2.16-2.94,3.87-4.26,1.71-1.32,3.84-2.61,6.39-3.87,2.55-1.26,5.54-2.63,8.96-4.12,3.49-1.48,6-2.74,7.55-3.78,1.55-1.03,2.32-2.45,2.32-4.26v-.97c0-1.03-.21-2.08-.63-3.15-.42-1.07-1.06-2.02-1.94-2.86-.87-.84-1.94-1.52-3.2-2.03-1.26-.52-2.73-.77-4.41-.77-1.94,0-3.62.34-5.04,1.02-1.42.68-2.6,1.58-3.53,2.71-.94,1.13-1.61,2.44-2.03,3.92-.42,1.49-.63,3.04-.63,4.65l-7.26-2.52c.32-.97.92-2.1,1.79-3.39.87-1.29,2.08-2.53,3.63-3.73,1.55-1.19,3.5-2.19,5.86-3,2.36-.81,5.21-1.21,8.57-1.21s6.07.45,8.33,1.36c2.26.9,4.1,2.08,5.52,3.53,1.42,1.45,2.44,3.04,3.05,4.75.61,1.71.92,3.41.92,5.08v28.76ZM504.59,1353.93c-.71.71-1.76,1.44-3.15,2.18-1.39.74-3.28,1.69-5.67,2.86-2.65,1.29-4.76,2.75-6.34,4.36-1.58,1.61-2.79,3.21-3.63,4.79-.84,1.58-1.39,3.07-1.65,4.46-.26,1.39-.39,2.5-.39,3.34,0,.77.1,1.69.29,2.76.19,1.06.6,2.08,1.21,3.05.61.97,1.47,1.79,2.57,2.47,1.1.68,2.55,1.02,4.36,1.02,2.45,0,4.49-.6,6.1-1.79,1.61-1.19,2.87-2.58,3.78-4.16.9-1.58,1.55-3.13,1.94-4.65.39-1.52.58-2.6.58-3.24v-17.43Z"/>
          <path class="st2" d="M547.98,1338.44c2.91,0,5.55.63,7.94,1.89,2.39,1.26,4.45,2.99,6.2,5.18,1.74,2.2,3.08,4.76,4.02,7.7.94,2.94,1.4,6.05,1.4,9.35s-.5,6.51-1.5,9.44c-1,2.94-2.42,5.5-4.26,7.7-1.84,2.2-4.08,3.92-6.73,5.18-2.65,1.26-5.65,1.89-9.01,1.89-1.81,0-3.42-.26-4.84-.77-1.42-.52-2.66-1.19-3.73-2.03-1.07-.84-1.97-1.77-2.71-2.81-.74-1.03-1.37-2.07-1.89-3.1v25.47c0,.52.1,1,.29,1.45.19.32.45.63.77.92.32.29.81.44,1.45.44v.97h-13.95v-.97c.64,0,1.15-.15,1.5-.44.35-.29.6-.6.73-.92.19-.45.29-.94.29-1.45v-60.33c0-.52-.1-.97-.29-1.36-.13-.32-.37-.63-.73-.92-.36-.29-.86-.44-1.5-.44v-1.06h9.59c.39,0,.84.19,1.36.58.39.52.55.97.48,1.35v7.55c.52-1.36,1.16-2.66,1.94-3.92.77-1.26,1.76-2.37,2.95-3.34,1.19-.97,2.63-1.74,4.31-2.32,1.68-.58,3.65-.87,5.91-.87ZM544.98,1385.21c2.07,0,3.91-.6,5.52-1.79,1.61-1.19,2.99-2.81,4.12-4.84,1.13-2.03,1.99-4.44,2.57-7.21.58-2.77.87-5.71.87-8.81s-.24-6-.73-8.72-1.26-5.07-2.32-7.07c-1.07-2-2.39-3.57-3.97-4.7-1.58-1.13-3.5-1.69-5.76-1.69-3.87,0-6.89,1.6-9.06,4.79-2.16,3.2-3.24,7.83-3.24,13.9v13.27c0,.77.24,1.89.73,3.34.48,1.45,1.21,2.87,2.18,4.26.97,1.39,2.21,2.62,3.73,3.68,1.52,1.06,3.31,1.6,5.37,1.6Z"/>
          <path class="st2" d="M597.17,1384.92c-2.13,1.36-4.45,1.97-6.97,1.84-3.62,0-6.38-.64-8.28-1.94-1.91-1.29-3.31-2.71-4.21-4.26-1.03-1.74-1.61-3.78-1.74-6.1v-33.51h-6.88v-1.55h6.88v-9.97l9.01-4.36v14.33h11.91v1.55h-11.91v35.54c0,.52.06,1.26.19,2.23.13.97.44,1.92.92,2.86.48.94,1.18,1.76,2.08,2.47.9.71,2.13,1.06,3.68,1.06.77,0,1.55-.1,2.32-.29s1.48-.52,2.13-.97l.87,1.06Z"/>
          <path class="st2" d="M643.56,1381.92c0,.52.1.97.29,1.36s.45.73.77,1.02c.32.29.81.44,1.45.44v.97h-9.59c-.52,0-.97-.19-1.36-.58s-.58-.84-.58-1.36v-5.23c-1.36,2.65-3.31,4.71-5.86,6.2-2.55,1.49-5.34,2.16-8.38,2.03-.97-.06-1.95-.15-2.95-.24-1-.1-1.99-.27-2.95-.53-1.61-.39-3.12-1.02-4.5-1.89-1.39-.87-2.58-1.94-3.58-3.2-1-1.26-1.78-2.66-2.32-4.21-.55-1.55-.82-3.16-.82-4.84v-28.67c0-.52-.1-.97-.29-1.36-.13-.32-.37-.63-.73-.92-.36-.29-.86-.44-1.5-.44v-1.06h9.59c.39,0,.84.19,1.36.58.39.52.55.97.48,1.35v34.96c0,1.03.21,2.08.63,3.15.42,1.06,1.05,2.02,1.89,2.86.84.84,1.84,1.52,3,2.03,1.16.52,2.52.77,4.07.77,2,0,3.79-.42,5.37-1.26,1.58-.84,2.94-1.87,4.07-3.1,1.13-1.23,1.99-2.5,2.57-3.83.58-1.32.87-2.5.87-3.54v-30.21c0-.52-.1-.97-.29-1.36-.13-.32-.36-.63-.68-.92-.32-.29-.81-.44-1.45-.44v-1.06h9.49c.52,0,.97.19,1.36.58s.58.84.58,1.35v40.58Z"/>
          <path class="st2" d="M664.87,1348.02c.97-3.29,2.73-5.73,5.28-7.31,2.55-1.58,5.47-2.37,8.76-2.37,1.36,0,2.6.1,3.73.29,1.13.19,2.15.45,3.05.77,1.03.32,1.97.68,2.81,1.06l-4.65,8.23c-.52-2-1.58-3.6-3.2-4.79-1.61-1.19-3.45-1.73-5.52-1.6-2.32,0-4.16.63-5.52,1.89-1.36,1.26-2.39,2.63-3.1,4.12-.84,1.81-1.39,3.84-1.65,6.1v27.5c0,.52.1.97.29,1.36.13.39.37.73.73,1.02.35.29.82.44,1.4.44v.97h-13.95v-.97c.64,0,1.15-.15,1.5-.44.35-.29.6-.63.73-1.02.19-.39.29-.84.29-1.36v-38.74c0-.52-.1-.97-.29-1.36-.13-.32-.37-.63-.73-.92-.36-.29-.86-.44-1.5-.44v-1.06h9.59c.52,0,.97.19,1.36.58.39.39.58.84.58,1.35v6.68Z"/>
          <path class="st2" d="M716.48,1384.73c3.29-.26,6.25-1.34,8.86-3.24,2.61-1.9,4.5-4.37,5.67-7.41l1.55.39c-.84,2.32-2.13,4.36-3.87,6.1-1.49,1.55-3.57,2.97-6.25,4.26-2.68,1.29-6.15,1.94-10.41,1.94-4,0-7.44-.63-10.31-1.89-2.87-1.26-5.21-2.98-7.02-5.18-1.81-2.19-3.13-4.76-3.97-7.7-.84-2.94-1.26-6.08-1.26-9.44s.42-6.41,1.26-9.35c.84-2.94,2.16-5.5,3.97-7.7,1.81-2.19,4.15-3.92,7.02-5.18,2.87-1.26,6.31-1.89,10.31-1.89,5.04,0,9.05.89,12.06,2.66,3,1.78,5.28,3.89,6.83,6.34,1.55,2.45,2.57,5,3.05,7.65.48,2.65.73,4.81.73,6.49h-35.64v.97c0,3.1.34,6.05,1.02,8.86.68,2.81,1.71,5.25,3.1,7.31,1.39,2.07,3.18,3.65,5.37,4.75,2.19,1.1,4.84,1.52,7.94,1.26ZM712.03,1339.99c-2,0-3.78.52-5.33,1.55-1.55,1.03-2.87,2.46-3.97,4.26-1.1,1.81-1.95,3.92-2.57,6.34-.61,2.42-.98,5.05-1.11,7.89h25.95v-.1c-.45-6.84-1.81-11.88-4.07-15.11-2.26-3.23-5.23-4.84-8.91-4.84Z"/>
          <path class="st2" d="M819.04,1317.81v1.06c-1.68-.13-3.24.23-4.7,1.07-1.45.84-2.57,2.03-3.34,3.58l-16.46,28.67v29.92c0,.65.23,1.26.68,1.84.52.52,1.13.77,1.84.77v.97h-13.95v-.97c.71,0,1.29-.26,1.74-.77.45-.52.68-1.13.68-1.84v-28.67l-18.69-32.34c-.52-.71-1.18-1.27-1.99-1.7-.81-.42-1.66-.6-2.57-.53v-1.06h17.14v1.06c-1.1,0-1.87.18-2.32.53-.45.36-.39,1.08.19,2.18l16.37,28.76,15.3-26.82c.71-1.29.95-2.39.73-3.29-.23-.9-1.21-1.36-2.95-1.36v-1.06h12.3Z"/>
          <path class="st2" d="M833.95,1338.44c4,0,7.44.63,10.31,1.89,2.87,1.26,5.23,2.99,7.07,5.18,1.84,2.2,3.18,4.76,4.02,7.7.84,2.94,1.26,6.05,1.26,9.35s-.42,6.51-1.26,9.44c-.84,2.94-2.18,5.5-4.02,7.7-1.84,2.2-4.18,3.92-7.02,5.18-2.84,1.26-6.29,1.89-10.36,1.89s-7.44-.63-10.31-1.89c-2.87-1.26-5.21-2.98-7.02-5.18-1.81-2.19-3.13-4.76-3.97-7.7-.84-2.94-1.26-6.08-1.26-9.44s.42-6.41,1.26-9.35c.84-2.94,2.16-5.5,3.97-7.7,1.81-2.19,4.15-3.92,7.02-5.18,2.87-1.26,6.31-1.89,10.31-1.89ZM833.95,1385.21c2.26,0,4.21-.6,5.86-1.79,1.65-1.19,3-2.81,4.07-4.84,1.07-2.03,1.85-4.44,2.37-7.21.52-2.77.77-5.71.77-8.81s-.26-6.02-.77-8.76c-.52-2.74-1.31-5.13-2.37-7.17-1.07-2.03-2.42-3.65-4.07-4.84-1.65-1.19-3.6-1.79-5.86-1.79s-4.12.6-5.76,1.79c-1.65,1.2-3,2.81-4.07,4.84-1.07,2.03-1.86,4.42-2.37,7.17-.52,2.75-.77,5.67-.77,8.76s.26,6.04.77,8.81c.52,2.78,1.31,5.18,2.37,7.21,1.07,2.03,2.42,3.65,4.07,4.84,1.65,1.2,3.57,1.79,5.76,1.79Z"/>
          <path class="st2" d="M903.87,1381.92c0,.52.1.97.29,1.36s.45.73.77,1.02c.32.29.81.44,1.45.44v.97h-9.59c-.52,0-.97-.19-1.36-.58s-.58-.84-.58-1.36v-5.23c-1.36,2.65-3.31,4.71-5.86,6.2-2.55,1.49-5.34,2.16-8.38,2.03-.97-.06-1.95-.15-2.95-.24-1-.1-1.99-.27-2.95-.53-1.61-.39-3.12-1.02-4.5-1.89-1.39-.87-2.58-1.94-3.58-3.2-1-1.26-1.78-2.66-2.32-4.21-.55-1.55-.82-3.16-.82-4.84v-28.67c0-.52-.1-.97-.29-1.36-.13-.32-.37-.63-.73-.92-.36-.29-.86-.44-1.5-.44v-1.06h9.59c.39,0,.84.19,1.36.58.39.52.55.97.48,1.35v34.96c0,1.03.21,2.08.63,3.15.42,1.06,1.05,2.02,1.89,2.86.84.84,1.84,1.52,3,2.03,1.16.52,2.52.77,4.07.77,2,0,3.79-.42,5.37-1.26,1.58-.84,2.94-1.87,4.07-3.1,1.13-1.23,1.99-2.5,2.57-3.83.58-1.32.87-2.5.87-3.54v-30.21c0-.52-.1-.97-.29-1.36-.13-.32-.36-.63-.68-.92-.32-.29-.81-.44-1.45-.44v-1.06h9.49c.52,0,.97.19,1.36.58s.58.84.58,1.35v40.58Z"/>
          <path class="st2" d="M925.17,1348.02c.97-3.29,2.73-5.73,5.28-7.31,2.55-1.58,5.47-2.37,8.76-2.37,1.36,0,2.6.1,3.73.29,1.13.19,2.15.45,3.05.77,1.03.32,1.97.68,2.81,1.06l-4.65,8.23c-.52-2-1.58-3.6-3.2-4.79-1.61-1.19-3.45-1.73-5.52-1.6-2.32,0-4.16.63-5.52,1.89-1.36,1.26-2.39,2.63-3.1,4.12-.84,1.81-1.39,3.84-1.65,6.1v27.5c0,.52.1.97.29,1.36.13.39.37.73.73,1.02.35.29.82.44,1.4.44v.97h-13.95v-.97c.64,0,1.15-.15,1.5-.44.35-.29.6-.63.73-1.02.19-.39.29-.84.29-1.36v-38.74c0-.52-.1-.97-.29-1.36-.13-.32-.37-.63-.73-.92-.36-.29-.86-.44-1.5-.44v-1.06h9.59c.52,0,.97.19,1.36.58.39.39.58.84.58,1.35v6.68Z"/>
          <path class="st2" d="M1031.22,1318.87c-.58,0-1.05.15-1.4.44-.36.29-.6.6-.73.92-.19.39-.29.84-.29,1.36v60.33c0,.52.1.97.29,1.36.13.39.37.73.73,1.02.35.29.82.44,1.4.44v.97h-13.95v-.97c.65,0,1.15-.15,1.5-.44.35-.29.6-.63.73-1.02.19-.39.29-.84.29-1.36v-29.34h-29.92v29.34c0,.52.1.97.29,1.36.13.39.37.73.73,1.02.35.29.82.44,1.4.44v.97h-13.95v-.97c.64,0,1.15-.15,1.5-.44.35-.29.6-.63.73-1.02.19-.39.29-.84.29-1.36v-60.33c0-.52-.1-.97-.29-1.36-.13-.32-.37-.63-.73-.92-.36-.29-.86-.44-1.5-.44v-1.06h13.95v1.06c-.58,0-1.05.15-1.4.44-.36.29-.6.6-.73.92-.19.39-.29.84-.29,1.36v29.44h29.92v-29.44c0-.52-.1-.97-.29-1.36-.13-.32-.37-.63-.73-.92-.36-.29-.86-.44-1.5-.44v-1.06h13.95v1.06Z"/>
          <path class="st2" d="M1076.54,1381.92c0,.52.1.97.29,1.36s.45.73.77,1.02c.32.29.81.44,1.45.44v.97h-9.59c-.52,0-.97-.19-1.36-.58s-.58-.84-.58-1.36v-6.68c-.71,1.94-1.6,3.52-2.66,4.75-1.07,1.23-2.2,2.21-3.39,2.95-1.2.74-2.44,1.26-3.73,1.55-1.29.29-2.52.44-3.68.44h-1.65c-.9,0-1.99-.06-3.24-.19-1.26-.13-2.6-.4-4.02-.82-1.42-.42-2.73-1.05-3.92-1.89-1.2-.84-2.18-1.94-2.95-3.29s-1.16-3.07-1.16-5.13.44-3.86,1.31-5.37c.87-1.52,2.16-2.94,3.87-4.26,1.71-1.32,3.84-2.61,6.39-3.87,2.55-1.26,5.54-2.63,8.96-4.12,3.49-1.48,6-2.74,7.55-3.78,1.55-1.03,2.32-2.45,2.32-4.26v-.97c0-1.03-.21-2.08-.63-3.15-.42-1.07-1.06-2.02-1.94-2.86-.87-.84-1.94-1.52-3.2-2.03-1.26-.52-2.73-.77-4.41-.77-1.94,0-3.62.34-5.04,1.02-1.42.68-2.6,1.58-3.54,2.71-.94,1.13-1.61,2.44-2.03,3.92-.42,1.49-.63,3.04-.63,4.65l-7.26-2.52c.32-.97.92-2.1,1.79-3.39.87-1.29,2.08-2.53,3.63-3.73,1.55-1.19,3.5-2.19,5.86-3,2.36-.81,5.21-1.21,8.57-1.21s6.07.45,8.33,1.36c2.26.9,4.1,2.08,5.52,3.53,1.42,1.45,2.44,3.04,3.05,4.75.61,1.71.92,3.41.92,5.08v28.76ZM1067.53,1353.93c-.71.71-1.76,1.44-3.15,2.18-1.39.74-3.28,1.69-5.66,2.86-2.65,1.29-4.76,2.75-6.34,4.36-1.58,1.61-2.79,3.21-3.63,4.79-.84,1.58-1.39,3.07-1.65,4.46-.26,1.39-.39,2.5-.39,3.34,0,.77.1,1.69.29,2.76.19,1.06.6,2.08,1.21,3.05.61.97,1.47,1.79,2.57,2.47,1.1.68,2.55,1.02,4.36,1.02,2.45,0,4.49-.6,6.1-1.79,1.61-1.19,2.87-2.58,3.78-4.16.9-1.58,1.55-3.13,1.94-4.65.39-1.52.58-2.6.58-3.24v-17.43Z"/>
          <path class="st2" d="M1128.25,1381.92c0,.52.1.97.29,1.36s.45.73.77,1.02c.32.29.81.44,1.45.44v.97h-13.95v-.97c.64,0,1.13-.15,1.45-.44.32-.29.55-.63.68-1.02.19-.39.29-.84.29-1.36v-33.12c0-1.03-.21-2.06-.63-3.1-.42-1.03-1.03-1.97-1.84-2.81-.81-.84-1.79-1.52-2.95-2.03-1.16-.52-2.52-.77-4.07-.77-2,0-3.79.42-5.37,1.26-1.58.84-2.94,1.86-4.07,3.05-1.13,1.2-1.98,2.47-2.57,3.83-.58,1.36-.87,2.55-.87,3.58v30.12c0,.52.1.97.29,1.36.13.39.37.73.73,1.02.35.29.82.44,1.4.44v.97h-13.95v-.97c.64,0,1.15-.15,1.5-.44.35-.29.6-.63.73-1.02.19-.39.29-.84.29-1.36v-38.74c0-.52-.1-.97-.29-1.36-.13-.32-.37-.63-.73-.92-.36-.29-.86-.44-1.5-.44v-1.06h9.59c.52,0,.97.19,1.36.58s.58.84.58,1.35v5.33c1.36-2.71,3.31-4.79,5.86-6.25,2.55-1.45,5.34-2.11,8.38-1.98,2.19,0,4.32.32,6.39.97,2.07.65,3.89,1.6,5.47,2.86,1.58,1.26,2.86,2.81,3.83,4.65.97,1.84,1.45,3.99,1.45,6.44v28.57Z"/>
          <path class="st2" d="M1158.17,1338.44c4,0,7.44.63,10.31,1.89,2.87,1.26,5.23,2.99,7.07,5.18,1.84,2.2,3.18,4.76,4.02,7.7.84,2.94,1.26,6.05,1.26,9.35s-.42,6.51-1.26,9.44c-.84,2.94-2.18,5.5-4.02,7.7-1.84,2.2-4.18,3.92-7.02,5.18-2.84,1.26-6.29,1.89-10.36,1.89s-7.44-.63-10.31-1.89c-2.87-1.26-5.21-2.98-7.02-5.18-1.81-2.19-3.13-4.76-3.97-7.7-.84-2.94-1.26-6.08-1.26-9.44s.42-6.41,1.26-9.35c.84-2.94,2.16-5.5,3.97-7.7,1.81-2.19,4.15-3.92,7.02-5.18,2.87-1.26,6.31-1.89,10.31-1.89ZM1158.17,1385.21c2.26,0,4.21-.6,5.86-1.79,1.65-1.19,3-2.81,4.07-4.84,1.06-2.03,1.85-4.44,2.37-7.21.52-2.77.77-5.71.77-8.81s-.26-6.02-.77-8.76c-.52-2.74-1.31-5.13-2.37-7.17-1.07-2.03-2.42-3.65-4.07-4.84-1.65-1.19-3.6-1.79-5.86-1.79s-4.12.6-5.76,1.79c-1.65,1.2-3,2.81-4.07,4.84-1.06,2.03-1.86,4.42-2.37,7.17-.52,2.75-.77,5.67-.77,8.76s.26,6.04.77,8.81c.52,2.78,1.31,5.18,2.37,7.21,1.06,2.03,2.42,3.65,4.07,4.84,1.65,1.2,3.57,1.79,5.76,1.79Z"/>
          <path class="st2" d="M1197.68,1381.92c0,.52.1.97.29,1.36.13.39.37.73.73,1.02.35.29.82.44,1.4.44v.97h-13.95v-.97c.64,0,1.15-.15,1.5-.44.35-.29.6-.63.73-1.02.19-.39.29-.84.29-1.36v-38.74c0-.52-.1-.97-.29-1.36-.13-.32-.37-.63-.73-.92-.36-.29-.86-.44-1.5-.44v-1.06h9.59c.52,0,.97.19,1.36.58s.58.84.58,1.35v40.58ZM1192.74,1333.01c-1.68,0-3.12-.6-4.31-1.79-1.2-1.19-1.79-2.63-1.79-4.31s.6-3.11,1.79-4.31c1.19-1.19,2.63-1.79,4.31-1.79s3.2.58,4.36,1.74c.9.9,1.48,1.95,1.74,3.15.26,1.2.13,2.37-.39,3.54-.52,1.16-1.28,2.08-2.28,2.76-1,.68-2.15,1.02-3.44,1.02Z"/>
          <path class="st2" d="M1299.56,1318.87c-.58,0-1.05.15-1.4.44-.36.29-.6.6-.73.92-.19.39-.29.84-.29,1.36v60.33c0,.52.1.97.29,1.36.13.39.37.73.73,1.02.35.29.82.44,1.4.44v.97h-13.94v-.97c.64,0,1.15-.15,1.5-.44.35-.29.6-.63.73-1.02.19-.39.29-.84.29-1.36v-58.69l-23.82,56.17h-1.55l-24.31-54.33v54.52c.06.97.32,1.81.77,2.52.39.65,1,1.23,1.84,1.74.84.52,2.03.77,3.58.77v1.06h-13.95v-1.06c1.55,0,2.74-.26,3.58-.77.84-.52,1.45-1.1,1.84-1.74.45-.71.71-1.55.77-2.52v-56.17c-.06-.32-.18-.74-.34-1.26-.16-.52-.47-1.02-.92-1.5-.45-.48-1.06-.9-1.84-1.26-.77-.35-1.78-.53-3-.53v-1.06h13.56c.77,0,1.39.39,1.84,1.16l21.6,48.32,20.92-49.39,10.85-.1v1.06Z"/>
          <path class="st2" d="M1327.54,1338.44c4,0,7.44.63,10.31,1.89,2.87,1.26,5.23,2.99,7.07,5.18,1.84,2.2,3.18,4.76,4.02,7.7.84,2.94,1.26,6.05,1.26,9.35s-.42,6.51-1.26,9.44c-.84,2.94-2.18,5.5-4.02,7.7-1.84,2.2-4.18,3.92-7.02,5.18-2.84,1.26-6.29,1.89-10.36,1.89s-7.44-.63-10.31-1.89c-2.87-1.26-5.21-2.98-7.02-5.18-1.81-2.19-3.13-4.76-3.97-7.7-.84-2.94-1.26-6.08-1.26-9.44s.42-6.41,1.26-9.35c.84-2.94,2.16-5.5,3.97-7.7,1.81-2.19,4.15-3.92,7.02-5.18,2.87-1.26,6.31-1.89,10.31-1.89ZM1327.54,1385.21c2.26,0,4.21-.6,5.86-1.79,1.65-1.19,3-2.81,4.07-4.84,1.06-2.03,1.85-4.44,2.37-7.21.52-2.77.77-5.71.77-8.81s-.26-6.02-.77-8.76c-.52-2.74-1.31-5.13-2.37-7.17-1.07-2.03-2.42-3.65-4.07-4.84-1.65-1.19-3.6-1.79-5.86-1.79s-4.12.6-5.76,1.79c-1.65,1.2-3,2.81-4.07,4.84-1.06,2.03-1.86,4.42-2.37,7.17-.52,2.75-.77,5.67-.77,8.76s.26,6.04.77,8.81c.52,2.78,1.31,5.18,2.37,7.21,1.06,2.03,2.42,3.65,4.07,4.84,1.65,1.2,3.57,1.79,5.76,1.79Z"/>
          <path class="st2" d="M1418.38,1381.92c0,.52.1.97.29,1.36s.45.73.77,1.02c.32.29.81.44,1.45.44v.97h-13.95v-.97c.64,0,1.13-.15,1.45-.44.32-.29.55-.63.68-1.02.19-.39.29-.84.29-1.36v-33.22c0-.52-.06-1.26-.19-2.23-.13-.97-.44-1.92-.92-2.86-.48-.94-1.18-1.76-2.08-2.47-.91-.71-2.13-1.06-3.68-1.06-1.81,0-3.36.42-4.65,1.26-1.29.84-2.34,1.86-3.15,3.05-.81,1.2-1.39,2.47-1.74,3.83-.36,1.36-.53,2.55-.53,3.58v30.12c0,.52.1.97.29,1.36s.45.73.77,1.02c.32.29.81.44,1.45.44v.97h-13.95v-.97c.64,0,1.15-.15,1.5-.44.35-.29.6-.63.73-1.02.19-.39.29-.84.29-1.36v-33.22c0-.52-.03-1.26-.1-2.23-.06-.97-.29-1.92-.68-2.86-.39-.94-1-1.76-1.84-2.47-.84-.71-2.03-1.06-3.58-1.06-1.81,0-3.39.53-4.75,1.6-1.36,1.06-2.47,2.32-3.34,3.78-.87,1.45-1.53,2.95-1.98,4.5-.45,1.55-.68,2.84-.68,3.87v28.08c0,.52.1.97.29,1.36.13.39.37.73.73,1.02.35.29.82.44,1.4.44v.97h-13.95v-.97c.64,0,1.15-.15,1.5-.44.35-.29.6-.63.73-1.02.19-.39.29-.84.29-1.36v-38.74c0-.52-.1-.97-.29-1.36-.13-.32-.37-.63-.73-.92-.36-.29-.86-.44-1.5-.44v-1.06h9.59c.52,0,.97.19,1.36.58s.58.84.58,1.35v6c.45-1.1,1.02-2.16,1.69-3.2.68-1.03,1.52-1.99,2.52-2.86,1-.87,2.18-1.56,3.54-2.08,1.36-.52,2.9-.77,4.65-.77,2.19,0,4.05.26,5.57.77,1.52.52,2.79,1.18,3.83,1.98,1.03.81,1.82,1.69,2.37,2.66.55.97.95,1.91,1.21,2.81.32-.97.79-1.94,1.4-2.91.61-.97,1.4-1.85,2.37-2.66.97-.81,2.15-1.45,3.54-1.94,1.39-.48,3.02-.73,4.89-.73s3.39.18,4.75.53c1.36.36,2.53.82,3.54,1.4,1,.58,1.84,1.23,2.52,1.94.68.71,1.24,1.45,1.69,2.23,1.03,1.81,1.61,3.87,1.74,6.2v31.18Z"/>
          <path class="st2" d="M1452.76,1384.73c3.29-.26,6.25-1.34,8.86-3.24,2.61-1.9,4.5-4.37,5.66-7.41l1.55.39c-.84,2.32-2.13,4.36-3.87,6.1-1.49,1.55-3.57,2.97-6.25,4.26-2.68,1.29-6.15,1.94-10.41,1.94-4,0-7.44-.63-10.31-1.89-2.87-1.26-5.21-2.98-7.02-5.18-1.81-2.19-3.13-4.76-3.97-7.7-.84-2.94-1.26-6.08-1.26-9.44s.42-6.41,1.26-9.35c.84-2.94,2.16-5.5,3.97-7.7,1.81-2.19,4.15-3.92,7.02-5.18,2.87-1.26,6.31-1.89,10.31-1.89,5.04,0,9.05.89,12.06,2.66,3,1.78,5.28,3.89,6.83,6.34,1.55,2.45,2.57,5,3.05,7.65.48,2.65.73,4.81.73,6.49h-35.64v.97c0,3.1.34,6.05,1.02,8.86.68,2.81,1.71,5.25,3.1,7.31,1.39,2.07,3.18,3.65,5.37,4.75,2.19,1.1,4.84,1.52,7.94,1.26ZM1448.31,1339.99c-2,0-3.78.52-5.33,1.55-1.55,1.03-2.87,2.46-3.97,4.26-1.1,1.81-1.95,3.92-2.57,6.34-.61,2.42-.99,5.05-1.11,7.89h25.95v-.1c-.45-6.84-1.81-11.88-4.07-15.11-2.26-3.23-5.23-4.84-8.91-4.84Z"/>
          <path class="st2" d="M1519.68,1381.92c0,.52.1.97.29,1.36s.45.73.77,1.02c.32.29.81.44,1.45.44v.97h-13.95v-.97c.64,0,1.13-.15,1.45-.44.32-.29.55-.63.68-1.02.19-.39.29-.84.29-1.36v-33.12c0-1.03-.21-2.06-.63-3.1-.42-1.03-1.03-1.97-1.84-2.81-.81-.84-1.79-1.52-2.95-2.03-1.16-.52-2.52-.77-4.07-.77-2,0-3.79.42-5.37,1.26-1.58.84-2.94,1.86-4.07,3.05-1.13,1.2-1.98,2.47-2.57,3.83-.58,1.36-.87,2.55-.87,3.58v30.12c0,.52.1.97.29,1.36.13.39.37.73.73,1.02.35.29.82.44,1.4.44v.97h-13.95v-.97c.64,0,1.15-.15,1.5-.44.35-.29.6-.63.73-1.02.19-.39.29-.84.29-1.36v-38.74c0-.52-.1-.97-.29-1.36-.13-.32-.37-.63-.73-.92-.36-.29-.86-.44-1.5-.44v-1.06h9.59c.52,0,.97.19,1.36.58s.58.84.58,1.35v5.33c1.36-2.71,3.31-4.79,5.86-6.25,2.55-1.45,5.34-2.11,8.38-1.98,2.19,0,4.32.32,6.39.97,2.07.65,3.89,1.6,5.47,2.86,1.58,1.26,2.86,2.81,3.83,4.65.97,1.84,1.45,3.99,1.45,6.44v28.57Z"/>
          <path class="st2" d="M1553.18,1384.92c-2.13,1.36-4.46,1.97-6.97,1.84-3.62,0-6.38-.64-8.28-1.94-1.9-1.29-3.31-2.71-4.21-4.26-1.03-1.74-1.61-3.78-1.74-6.1v-33.51h-6.88v-1.55h6.88v-9.97l9.01-4.36v14.33h11.91v1.55h-11.91v35.54c0,.52.06,1.26.19,2.23.13.97.44,1.92.92,2.86.48.94,1.18,1.76,2.08,2.47.9.71,2.13,1.06,3.68,1.06.77,0,1.55-.1,2.32-.29s1.48-.52,2.13-.97l.87,1.06Z"/>
          <path class="st2" d="M1579.62,1359.55c2.52.84,4.68,1.71,6.49,2.61,1.81.91,3.29,1.92,4.46,3.05,1.16,1.13,2,2.41,2.52,3.83.52,1.42.77,3.07.77,4.94,0,2.26-.53,4.2-1.6,5.81-1.07,1.61-2.47,2.94-4.21,3.97-1.74,1.03-3.73,1.79-5.96,2.28-2.23.48-4.47.73-6.73.73-3.75.13-7.33-.55-10.75-2.03-3.42-1.48-6.39-3.61-8.91-6.39l5.13-5.42c.19,1.81.71,3.47,1.55,4.99.84,1.52,1.9,2.83,3.2,3.92,1.29,1.1,2.78,1.95,4.46,2.57,1.68.61,3.42.89,5.23.82,3.42,0,6.26-.6,8.52-1.79,2.26-1.19,3.39-3.21,3.39-6.05,0-1.42-.42-2.68-1.26-3.78-.84-1.1-1.94-2.08-3.29-2.95s-2.94-1.65-4.75-2.32c-1.81-.68-3.68-1.34-5.62-1.98-2.58-.84-4.83-1.68-6.73-2.52-1.91-.84-3.49-1.79-4.75-2.86-1.26-1.07-2.21-2.32-2.86-3.78-.65-1.45-.97-3.18-.97-5.18,0-2.32.48-4.34,1.45-6.05.97-1.71,2.28-3.13,3.92-4.26,1.65-1.13,3.55-1.95,5.71-2.47,2.16-.52,4.41-.77,6.73-.77,3.49-.13,6.83.47,10.02,1.79,3.2,1.32,5.96,3.28,8.28,5.86l-4.65,4.94c0-.52-.15-1.37-.44-2.57-.29-1.19-.9-2.42-1.84-3.68-.94-1.26-2.31-2.37-4.12-3.34-1.81-.97-4.26-1.45-7.36-1.45-1.16,0-2.41.13-3.73.39-1.32.26-2.55.68-3.68,1.26-1.13.58-2.07,1.37-2.81,2.37-.74,1-1.11,2.24-1.11,3.73,0,1.81.56,3.34,1.69,4.6,1.13,1.26,2.52,2.34,4.16,3.24,1.65.9,3.41,1.66,5.28,2.28,1.87.61,3.58,1.18,5.13,1.69Z"/>
        </g>
        <g>
          <path class="st2" d="M935.77,1260.83c-1.81-1.61-3.22-3.48-4.3-5.61-1.08-2.13-1.61-4.63-1.61-7.52v-159.12c0-9.29-1.71-18.65-5.09-28.13-3.38-9.45-9.03-18.22-16.87-26.23-7.85-8.04-18.06-14.58-30.53-19.57-12.51-5.02-27.87-7.52-46.09-7.52s-34.37,2.23-47.4,6.7c-13.03,4.46-23.83,10.01-32.43,16.61-8.57,6.63-15.26,13.49-20.09,20.65-4.83,7.12-8.11,13.39-9.91,18.74l40.18,13.92c0-8.93,1.18-17.5,3.48-25.7,2.33-8.21,6.07-15.46,11.26-21.7,5.19-6.24,11.72-11.26,19.57-15,7.85-3.74,17.14-5.65,27.87-5.65,9.26,0,17.4,1.44,24.36,4.3,6.96,2.86,12.87,6.63,17.69,11.26,4.83,4.63,8.37,9.91,10.7,15.79,2.33,5.91,3.48,11.72,3.48,17.43v5.35c0,10.01-4.27,17.86-12.84,23.57-8.6,5.71-22.52,12.67-41.79,20.88-18.94,8.24-35.45,15.82-49.57,22.78-14.12,6.96-25.9,14.12-35.36,21.44-9.49,7.32-16.61,15.2-21.44,23.57-4.83,8.4-7.22,18.32-7.22,29.74s2.13,20.88,6.4,28.4c4.3,7.48,9.75,13.59,16.35,18.22,6.6,4.63,13.85,8.11,21.7,10.44,7.85,2.33,15.26,3.84,22.22,4.56,6.99.69,12.97,1.05,17.96,1.05h9.13c6.43,0,13.2-.79,20.35-2.4,7.12-1.61,14.02-4.46,20.62-8.57,6.6-4.1,12.87-9.55,18.74-16.35,5.91-6.8,10.8-15.53,14.74-26.26v36.96c0,2.89,1.08,5.38,3.22,7.52,2.17,2.13,4.63,3.22,7.52,3.22h53.02v-5.35c-3.55,0-6.24-.82-8.01-2.43ZM880.02,1189.3c0,3.58-1.05,9.59-3.22,17.96-2.13,8.4-5.71,16.97-10.7,25.7-5.02,8.77-11.98,16.45-20.91,23.05-8.93,6.63-20.16,9.91-33.75,9.91-9.98,0-18.02-1.87-24.1-5.61-6.07-3.74-10.8-8.31-14.21-13.66-3.38-5.35-5.61-11-6.7-16.87-1.05-5.91-1.61-11-1.61-15.3,0-4.63.72-10.8,2.17-18.48,1.41-7.65,4.46-15.89,9.09-24.62,4.63-8.76,11.33-17.6,20.09-26.52,8.73-8.93,20.45-16.97,35.09-24.13,13.2-6.43,23.67-11.69,31.35-15.79,7.68-4.1,13.46-8.14,17.4-12.05v96.41Z"/>
          <path class="st2" d="M1593.04,936.69c-1.44-6.6-4.66-12.41-9.65-17.4-6.43-6.43-14.48-9.65-24.13-9.65s-17.23,3.32-23.83,9.91c-6.63,6.6-9.91,14.54-9.91,23.83s3.28,17.23,9.91,23.83c6.6,6.63,14.54,9.91,23.83,9.91,7.16,0,13.49-1.87,19.04-5.61,5.52-3.74,9.72-8.83,12.57-15.26,2.86-6.43,3.58-12.93,2.17-19.57ZM1592.22,1260.83c-1.97-1.61-3.32-3.48-4-5.61-1.08-2.13-1.64-4.63-1.64-7.52v-224.48c0-2.86-1.05-5.35-3.18-7.52-2.17-2.13-4.66-3.18-7.52-3.18h-53.05v5.88c3.58,0,6.34.82,8.31,2.4,1.97,1.61,3.32,3.32,4.04,5.12,1.05,2.13,1.61,4.63,1.61,7.48v214.3c0,2.89-.56,5.38-1.61,7.52-.72,2.13-2.07,4-4.04,5.61-1.97,1.61-4.73,2.43-8.31,2.43v5.35h77.18v-5.35c-3.22,0-5.81-.82-7.78-2.43Z"/>
          <path class="st2" d="M1216.48,1263.24v5.39h-77.14v-5.39c3.57,0,6.25-.78,8.03-2.38,1.79-1.64,3.05-3.5,3.76-5.65,1.08-2.12,1.6-4.61,1.6-7.48v-183.26c0-5.69-1.15-11.42-3.46-17.11-2.34-5.73-5.73-10.9-10.19-15.55-4.46-4.65-9.93-8.41-16.33-11.27-6.43-2.83-13.95-4.28-22.5-4.28-11.08,0-21.02,2.34-29.76,6.96-8.74,4.65-16.25,10.27-22.5,16.89-6.25,6.62-10.97,13.65-14.21,21.16-3.2,7.51-4.8,14.1-4.8,19.83v166.64c0,2.86.52,5.36,1.6,7.48.71,2.16,2.05,4.02,4.02,5.65,1.97,1.6,4.58,2.38,7.77,2.38v5.39h-77.14v-5.39c3.57,0,6.32-.78,8.29-2.38,1.97-1.64,3.31-3.5,4.02-5.65,1.08-2.12,1.6-4.61,1.6-7.48v-214.32c0-2.86-.52-5.36-1.6-7.51-.71-1.79-2.05-3.46-4.02-5.06-1.97-1.64-4.72-2.42-8.29-2.42v-5.91h53.04c2.83,0,5.36,1.08,7.48,3.24,2.16,2.12,3.24,4.65,3.24,7.48v29.5c7.48-15.03,18.3-26.52,32.4-34.59,12.98-7.36,27.04-11.05,42.29-11.05,1.34,0,2.68.04,4.05.07,12.16,0,23.95,1.79,35.37,5.36,11.42,3.57,21.5,8.85,30.28,15.81,6.25,4.98,11.64,10.79,16.14,17.44,1.86,2.64,3.5,5.39,5.02,8.29,5.36,10.15,8.03,22.06,8.03,35.6v158.08c0,2.86.52,5.36,1.6,7.48,1.08,2.16,2.49,4.02,4.28,5.65,1.79,1.6,4.46,2.38,8.03,2.38Z"/>
          <path class="st2" d="M679.12,1247.73c0,2.86.56,5.36,1.6,7.48.74,2.16,2.08,4.02,4.02,5.65,1.97,1.6,4.58,2.38,7.77,2.38v5.39h-77.14v-5.39c3.57,0,6.36-.78,8.29-2.38,1.97-1.64,3.31-3.5,4.02-5.65,1.08-2.12,1.64-4.61,1.64-7.48v-162.36h-165.56v162.36c0,2.86.52,5.36,1.6,7.48.71,2.16,2.05,4.02,4.02,5.65,1.97,1.6,4.54,2.38,7.77,2.38v5.39h-77.14v-5.39c3.57,0,6.32-.78,8.29-2.38,1.97-1.64,3.31-3.5,4.02-5.65,1.08-2.12,1.6-4.61,1.6-7.48v-333.79c0-2.86-.52-5.36-1.6-7.51-.71-1.79-2.05-3.46-4.02-5.1-1.97-1.6-4.72-2.38-8.29-2.38v-5.91h77.14v5.91c-3.24,0-5.8.78-7.77,2.38-1.97,1.64-3.31,3.31-4.02,5.1-1.08,2.16-1.6,4.65-1.6,7.51v162.88h165.56v-162.88c0-2.86-.56-5.36-1.64-7.51-.71-1.79-2.05-3.46-4.02-5.1-1.93-1.6-4.72-2.38-8.29-2.38v-5.91h77.14v5.91c-3.2,0-5.8.78-7.77,2.38-1.93,1.64-3.27,3.31-4.02,5.1-1.04,2.16-1.6,4.65-1.6,7.51v333.79Z"/>
          <g>
            <path class="st2" d="M1415.42,1193.98c8.78-12.06,15.52-24.11,21.45-37.4,9.18-21.86,14.75-44.49,17.02-68.2,1.87-19,1.27-37.39-.71-57.14,36.81,27.07,57.63,70.37,56.16,115.88-13.68,10.72-27.98,20.04-43.39,28.06-16.06,8.1-32.28,14.63-50.53,18.8Z"/>
            <path class="st2" d="M1437.71,1129.74c-6.08-13.42-13.05-25.32-21.58-37.07-17.44-23.05-38.96-42.19-63.49-57.51-11.83-7.45-23.86-13.35-37.06-19.49,41.92-18.22,89.69-14.65,128.38,9.21,2.59,17.49,3.43,35.13,2.52,53.12-1.13,17.5-3.39,34.12-8.77,51.75Z"/>
            <path class="st2" d="M1287.9,1198.19c-1.72,18.86-1.07,36.57.84,55.73-36.69-26.97-57.66-70.32-56.15-115.88,15.1-11.72,30.88-21.95,48.04-30.34,14.72-7.02,29.31-12.71,45.88-16.48-8.63,11.85-15.46,24.01-21.44,37.36-9.31,22.22-14.93,45.11-17.17,69.61Z"/>
            <path class="st2" d="M1426.24,1269.5c-41.73,18.18-89.6,14.66-128.28-9.24-2.66-17.86-3.46-35.9-2.46-54.28,1.18-17.21,3.55-33.64,8.73-50.59,6.06,13.73,13.24,25.59,21.79,37.47,16.91,22.18,37.51,40.76,61.05,55.77,12.36,7.97,24.97,14.25,39.17,20.87Z"/>
            <path class="st2" d="M1348.64,1206.77c14.73,1.57,28.24,1.44,42.55-.03,23.25-2.75,45.31-9.06,66.62-18.71,18.08-8.08,34.35-18.2,50.67-29.92-5.02,45.88-32.64,85.26-72.22,106.6-17.06-6.91-32.92-15.09-48.12-25.06-14.35-9.57-27.51-20.02-39.5-32.88Z"/>
            <path class="st2" d="M1350.96,1078.41c-23.88,2.83-46.1,9.28-67.7,19.12-17.61,8.01-33.68,17.85-49.84,29.6,4.84-45.35,32.3-85.21,72.18-106.66,19.96,8.05,38.59,18.06,56.01,30.45,11.39,8.28,21.83,16.94,31.65,27.47-14.55-1.45-27.79-1.41-42.3.03Z"/>
          </g>
        </g>
      </g>
      <g>
        <path class="st3" d="M635.67,812.96c0,.36-.2.72-.56,1.02-.95-.53-2.04-.76-3.09-.98-2.07-.39-4.17-.75-6.27-.98-6.37-.79-12.54-.56-18.78.03-.16,0-.3.03-.43.03-.49.03-1.02.07-1.48.13h-.07c-.43,0-.85.07-1.25.1-.66.07-1.35.13-2,.23v.03c-.26,0-.49.03-.75.07-5.61.75-11.13,2.07-16.45,3.97-.75.26-1.51.56-2.27.85-.46.16-.89.33-1.31.53-1.12.43-2.2.92-3.25,1.41-21.27,9.95-37.78,29.51-44.02,52.16-7.32,26.59-.07,56.5,17.92,77.41,16.81,19.57,42.45,30.99,68.28,31.42v9.06c-10.6.07-21.01-.75-31.25-2.46-15.1-2.59-28.72-7.58-40.8-14.9-12.08-7.32-21.86-17.2-29.35-29.58-7.52-12.38-11.39-27.74-11.69-46.09-.33-14.97,2.43-28.36,8.27-40.12,5.78-11.75,13.13-21.73,21.96-29.81,8.9-8.11,18.61-14.25,29.12-18.38,10.57-4.1,20.58-6.17,30.07-6.17,7.03,0,13.36.79,19.04,2.3,5.61,1.54,12.41,4.43,20.39,8.73Z"/>
        <path class="st1" d="M635.11,813.98c-.26.3-.66.53-1.12.79-.49.23-1.05.49-1.74.72-2.33.72-5.06,1.38-8.27,1.81-3.22.46-6.5.92-9.85,1.38-1.05.13-2.04.3-2.95.43-2,.26-3.61.53-4.86.72-17.1,3.35-29.87,12.15-38.28,26.39-8.44,14.18-12.61,30.33-12.61,48.36,0,11.62,1.81,22.22,5.45,31.88,3.71,9.62,8.9,17.89,15.63,24.75,6.7,6.89,14.74,12.24,24.06,16.09,6.11,2.49,12.54,4.04,19.34,4.79v8.31c-25.84-.43-51.47-11.85-68.28-31.42-17.99-20.91-25.24-50.82-17.92-77.41,6.24-22.65,22.75-42.22,44.02-52.16,1.05-.49,2.13-.98,3.25-1.41.43-.2.85-.36,1.31-.53.75-.3,1.51-.59,2.27-.85,5.32-1.9,10.83-3.22,16.45-3.97.26-.03.49-.07.75-.07v-.03c.66-.1,1.35-.16,2-.23.39-.03.82-.1,1.25-.1h.07c.46-.07.98-.1,1.48-.13.13,0,.26-.03.43-.03,6.24-.59,12.41-.82,18.78-.03,2.1.23,4.2.59,6.27.98,1.05.23,2.13.46,3.09.98Z"/>
        <path class="st3" d="M829.92,688.18c-4.76,11.65-11.2,21.8-19.27,30.5-8.11,8.73-17.37,15.59-27.74,20.65-10.44,5.05-20.95,6.96-31.68,5.74-3.35-.29-6.44-1.44-9.19-3.41-2.73-2.04-4.93-4.43-6.6-7.39-1.71-2.89-2.76-6.01-3.25-9.35-.26-2.13-.23-4.15.16-6.15v-.03c.83,2.43,2.11,4.74,3.73,6.82h0c.33.42.67.82,1.02,1.21.33.4.7.78,1.08,1.15.19.19.38.38.57.56.2.18.39.36.59.53h0c.53.46,1.08.9,1.64,1.33.19.14.38.28.58.41.38.26.77.52,1.17.77h.01c.4.24.8.48,1.21.7h0c.41.22.83.43,1.25.63.21.1.43.2.65.29.43.18.87.35,1.3.51t.01,0c.22.08.45.16.67.23,4.34,1.41,8.91,1.67,13.4,1.03.8-.11,1.59-.25,2.38-.42,1.53-.33,3.05-.75,4.54-1.27.47-.16.93-.33,1.4-.51,3.22-1.25,6.31-2.92,9.12-4.9.56-.39,1.12-.8,1.66-1.21.4-.31.8-.62,1.19-.94.79-.64,1.55-1.3,2.3-1.98.38-.34.74-.68,1.11-1.03.01-.01.01-.02.02-.01.43-.41.86-.83,1.26-1.25,2.92-2.95,5.55-6.18,8-9.56.8-1.11,1.58-2.24,2.35-3.37.76-1.13,1.5-2.27,2.23-3.41.37-.58.73-1.15,1.09-1.73,0,0,0,0,0,0,2.6-4.16,5.03-8.47,7.19-12.86.26-.53.53-1.05.76-1.61.49-1.02.95-2.01,1.38-3.02.49-1.02.91-2.04,1.31-3.06.39-.98.79-2,1.15-3.02.03-.03.06-.06.03-.09.33-.86.62-1.71.92-2.56.4-1.14.77-2.24,1.08-3.37.02-.08.05-.17.07-.25.29-1.01.56-2.03.82-3.05.06-.26.13-.52.2-.79.32-1.44.65-2.92.88-4.36.04-.13.07-.23.07-.36.03-.14.06-.27.06-.43.07-.33.14-.66.17-.99.16-.98.26-1.97.36-2.98.1-.95.2-1.87.23-2.83v-.16c.06-.89.1-1.77.1-2.66.03-1.12,0-2.26-.07-3.38-.03-.69-.1-1.41-.16-2.1-.04-.33-.07-.69-.1-1.02-.2-1.84-.49-3.68-.89-5.48-.12-.56-.25-1.11-.37-1.67-.83-3.72-1.69-7.44-2.98-11.04-.46-1.21-.95-2.42-1.51-3.61-1.34-2.92-3.15-5.41-5.08-7.88-.33-.45-.66-.91-1.02-1.34-.53-.69-1.08-1.35-1.64-1.97-.92-1.05-1.87-2.07-2.92-3.02-.56-.53-1.15-1.05-1.78-1.58-.06-.03-.1-.1-.16-.13t-.07-.06h-.01c-.19-.18-.38-.36-.61-.53-.13-.1-.26-.2-.39-.29-.14-.1-.27-.2-.4-.3-.44-.35-.87-.68-1.31-.97-.14-.11-.28-.21-.43-.31h-.01c-.25-.18-.5-.36-.75-.53-.75-.52-1.54-1.01-2.32-1.47h-.05c-.08-.06-.17-.12-.25-.17-.07-.06-.15-.1-.23-.13-.56-.33-1.08-.62-1.64-.92-.39-.23-.79-.42-1.15-.59-.66-.33-1.31-.65-2-.95-.29-.13-.58-.26-.87-.38-.39-.17-.78-.33-1.17-.49-.51-.21-1.02-.41-1.54-.6-.41-.14-.82-.29-1.23-.43-.4-.13-.8-.27-1.2-.41-.41-.13-.82-.27-1.23-.38-3.41-1.02-6.91-1.67-10.44-2.02-.24-.03-.47-.05-.71-.07-.55-.04-1.11-.08-1.66-.12-.57-.03-1.13-.06-1.7-.08-2.05-.07-4.11-.05-6.17.06-6.44.33-12.88,1.58-19.1,3.63-1.82.6-3.62,1.26-5.4,1.99-1.18.49-2.35,1-3.51,1.54h-.01c-1.73.82-3.44,1.69-5.12,2.62-.45.23-.89.47-1.33.71,0,0-.01,0-.02.01-.44.25-.87.5-1.31.76-.39.23-.79.46-1.17.7-.39.23-.78.47-1.16.72-.76.49-1.52.99-2.28,1.5-.78.54-1.56,1.09-2.32,1.65,0,0-.01,0-.02.01-.76.57-1.51,1.14-2.24,1.72-.43.34-.86.68-1.28,1.03-1.66,1.37-3.27,2.8-4.81,4.29-1.97,1.91-3.84,3.91-5.58,5.98-7.61,9.11-13.21,19.68-16.94,30.95-.7,2.11-1.34,4.25-1.91,6.41-.38,1.44-.73,2.88-1.05,4.34-1.77,7.99-2.69,16.2-2.8,24.37-.33,23.74,5.74,47.21,14.57,69.27,8.14,20.29,18.58,39.56,27.15,59.68,8.57,20.09,15.33,41.4,15.46,63.26.17,21.83-6.99,44.45-22.78,59.55-.41.41-.84.8-1.27,1.18t-.02,0c-.43.39-.87.75-1.3,1.11-.37.31-.74.61-1.12.91-.38.29-.76.58-1.15.86,0,0-.01.01-.02.01-.76.56-1.54,1.09-2.34,1.6-.17.13-.33.23-.49.29-.01,0-.01.01-.02.01-.29.2-.55.35-.84.52h-.01c-.26.16-.51.29-.78.46h-.01c-1.02.59-2.07,1.14-3.13,1.66-3.21,1.55-6.59,2.77-10.04,3.63-.42.11-.85.22-1.3.3-.14.03-.29.06-.44.08-.31.06-.62.11-.93.14v-6.53c.33-.27.72-.59,1.05-.89,1.61-1.48,3.12-3.05,4.56-4.73,5.81-6.53,10.57-14.44,14.22-23.73,4.59-11.62,6.43-25.67,5.51-42.19-.92-15.29-4.27-30.13-10.08-44.48-5.81-14.34-12.01-28.75-18.58-43.1-6.56-14.38-12.64-28.92-18.09-43.56-5.51-14.71-8.27-30.14-8.27-46.35s3.29-31.91,9.85-45.37c6.57-13.46,14.9-24.85,25.02-34.18,10.07-9.32,21.37-16.48,33.91-21.56,12.54-5.06,24.78-7.88,36.66-8.47,21.54-.89,38.45,3.57,50.76,13.36.46.33.92.72,1.34,1.08.07.07.13.13.2.16,12.24,10.58,18.81,25.54,19.73,45.01.59,12.21-1.45,24.16-6.17,35.75Z"/>
        <path class="st1" d="M816.69,654.86c0,.89-.04,1.77-.1,2.66v.16c-.03.96-.13,1.88-.23,2.83-.1,1.01-.2,2-.36,2.98-.03.33-.1.66-.17.99,0,.16-.03.29-.06.43,0,.13-.03.23-.07.36-.23,1.44-.56,2.92-.88,4.36-.07.27-.14.53-.2.79-.26,1.02-.53,2.04-.82,3.05-.02.08-.05.17-.07.25h-.02c-.31,1.13-.68,2.24-1.08,3.37-.29.85-.59,1.71-.92,2.56.03.02,0,.05-.01.09t-.02.01c-.36,1.02-.75,2.04-1.15,3.02-.39,1.02-.82,2.03-1.31,3.05-.43,1.02-.89,2-1.38,3.02-.23.56-.49,1.09-.75,1.61-2.17,4.4-4.6,8.69-7.18,12.86,0,0,0,0,0,0-.36.58-.72,1.15-1.09,1.73-.73,1.14-1.47,2.28-2.23,3.41-.77,1.13-1.55,2.26-2.35,3.37-2.45,3.38-5.08,6.61-8,9.56-.41.42-.83.84-1.26,1.25,0-.01,0,0-.02.01-.37.35-.73.69-1.11,1.03-.75.68-1.51,1.34-2.3,1.98-.39.32-.79.63-1.19.94-.54.41-1.1.82-1.66,1.21-2.81,1.98-5.9,3.65-9.12,4.9-.47.18-.93.35-1.4.51-1.49.52-3.01.94-4.54,1.27-.79.17-1.58.31-2.38.42-4.49.64-9.06.38-13.4-1.03-.22-.07-.45-.15-.67-.23t-.01,0c-.43-.16-.87-.33-1.3-.51-.22-.09-.44-.19-.65-.29-.42-.2-.84-.41-1.25-.63h0c-.41-.22-.81-.46-1.21-.7h-.01c-.4-.25-.79-.51-1.17-.77-.2-.13-.39-.27-.58-.41-.56-.43-1.11-.87-1.64-1.33h0c-.2-.17-.39-.35-.59-.53-.19-.18-.38-.37-.57-.56-.38-.37-.75-.75-1.08-1.15-.35-.39-.69-.79-1.02-1.2h0c-1.62-2.09-2.9-4.4-3.73-6.83v.03s0-.01,0-.02c.19-1.18.52-2.33.98-3.48.95,3.64,2.53,6.83,4.86,9.39,2.27,2.59,5.15,4.1,8.7,4.59,3.48.46,7.62-.49,12.38-2.75,4.72-2.3,9.84-6.64,15.36-13.07,8.27-9.16,14.9-20.25,19.93-33.22,5.05-13.03,7.61-25.41,7.61-37.16,0-2.79-.16-5.48-.52-8.04,0-.04-.04-.07-.04-.07-.78-5.78-2.46-11-5.05-15.59v-.04c-1.05-1.9-2.23-3.71-3.58-5.38-6.11-7.65-16.05-10.73-29.81-9.19-10.11,1.21-19.2,4.82-27.31,10.77-8.11,5.97-14.9,13.06-20.42,21.33-5.48,8.24-9.78,17.07-12.83,26.36-3.03,9.33-4.57,17.83-4.57,25.48,0,17.1,3.12,32.99,9.42,47.7,6.24,14.64,13.27,28.95,21.08,42.87,7.78,13.92,15.13,27.97,22.03,42.18,6.82,14.22,10.73,29.29,11.68,45.14,1.22,18.98-1.77,35.72-8.93,50.23-7.22,14.54-17,26.85-29.38,36.93-10.6,8.67-22.48,15.85-35.52,21.37-.03.03-.09.03-.13.07v-17.21h.02c.31-.03.62-.08.93-.14.15,0,.3-.04.44-.08.45-.08.88-.19,1.3-.3,3.45-.86,6.83-2.08,10.04-3.63,1.06-.52,2.11-1.07,3.13-1.66h.01c.27-.17.52-.3.78-.46h.01c.29-.17.55-.32.84-.52.01,0,.01-.01.02-.01.16-.06.32-.16.49-.29.8-.51,1.58-1.04,2.34-1.6.01,0,.02-.01.02-.01.39-.28.77-.57,1.15-.86.38-.3.75-.6,1.12-.91.43-.36.87-.72,1.3-1.11t.02,0c.43-.38.86-.77,1.27-1.18,15.79-15.1,22.95-37.72,22.78-59.55-.13-21.86-6.89-43.17-15.46-63.26-8.57-20.12-19.01-39.39-27.15-59.68-8.83-22.06-14.9-45.53-14.57-69.27.11-8.17,1.03-16.38,2.8-24.37.32-1.46.67-2.9,1.05-4.34.57-2.16,1.21-4.3,1.91-6.41,3.73-11.27,9.33-21.84,16.94-30.95,1.74-2.07,3.61-4.07,5.58-5.98,1.54-1.49,3.15-2.92,4.81-4.29.42-.35.85-.69,1.28-1.03.73-.58,1.48-1.15,2.24-1.72.01-.01.02-.01.02-.01.76-.56,1.54-1.11,2.32-1.65.76-.51,1.52-1.01,2.28-1.5.38-.25.77-.49,1.16-.72.38-.24.78-.47,1.17-.7.44-.26.87-.51,1.31-.76.01-.01.02-.01.02-.01.44-.24.88-.48,1.33-.71,1.68-.93,3.39-1.8,5.12-2.62h.01c1.16-.54,2.33-1.05,3.51-1.54,1.78-.73,3.58-1.39,5.4-1.99,6.22-2.05,12.66-3.3,19.1-3.63,2.06-.11,4.12-.13,6.17-.06.57.02,1.13.05,1.7.08.55.04,1.11.08,1.66.12.24.02.47.04.71.07,3.53.35,7.03,1,10.44,2.02.41.11.82.25,1.23.38.4.14.8.28,1.2.41.41.14.82.29,1.23.43.52.19,1.03.39,1.54.6.39.16.78.32,1.17.49.28.13.57.26.85.39.69.29,1.35.62,2,.95.36.16.76.36,1.15.59.56.29,1.09.59,1.64.92.08.03.17.07.25.12.08.05.17.11.25.17h.03c.79.47,1.57.96,2.34,1.47.25.17.5.35.75.53h.01c.15.1.29.2.43.31.43.31.85.63,1.3.98.13.09.26.19.39.29.33.26.69.53,1.02.82t.06.07c.07.03.1.1.17.13.62.52,1.21,1.05,1.77,1.57,1.05.96,2,1.97,2.92,3.02.56.63,1.12,1.28,1.64,1.97.36.43.69.89,1.02,1.35,1.94,2.46,3.74,4.96,5.09,7.88.56,1.18,1.05,2.4,1.51,3.61,1.29,3.6,2.14,7.33,2.98,11.04h0c.12.55.25,1.1.37,1.66.4,1.8.69,3.64.89,5.48.03.33.06.69.1,1.02.06.69.13,1.41.16,2.1.07,1.12.1,2.26.07,3.38Z"/>
        <path class="st1" d="M706.27,950.87c.81-.51,1.59-1.04,2.36-1.6-.76.56-1.54,1.09-2.34,1.6-.17.13-.33.23-.49.29.15-.07.32-.17.47-.29Z"/>
        <path class="st1" d="M710.9,947.49c.44-.36.89-.73,1.32-1.11-.43.39-.87.75-1.3,1.11-.37.31-.74.61-1.12.91.37-.3.74-.6,1.1-.91Z"/>
        <path class="st1" d="M713.48,616.06c-.43.34-.86.68-1.28,1.03.41-.35.84-.69,1.26-1.03.74-.59,1.5-1.16,2.26-1.72-.76.57-1.51,1.14-2.24,1.72Z"/>
        <path class="st1" d="M722.67,609.76c-.39.23-.79.46-1.17.7.38-.24.76-.47,1.15-.7.45-.26.89-.52,1.33-.76-.44.25-.87.5-1.31.76Z"/>
        <path class="st1" d="M725.33,608.28c-.45.23-.89.47-1.33.71.44-.25.88-.48,1.31-.71,1.68-.93,3.4-1.81,5.14-2.62-1.73.82-3.44,1.69-5.12,2.62Z"/>
        <path class="st1" d="M733.97,604.12c-1.18.49-2.35,1-3.51,1.54,1.16-.55,2.33-1.06,3.51-1.54Z"/>
        <path class="st1" d="M732.35,718.74c.83,2.43,2.11,4.74,3.73,6.82-1.62-2.06-2.9-4.36-3.73-6.79v-.03Z"/>
        <path class="st1" d="M720.83,822.38c8.57,20.09,15.33,41.4,15.46,63.26.17,21.83-6.99,44.45-22.78,59.55-.41.41-.84.8-1.27,1.18.43-.39.85-.78,1.25-1.18,15.79-15.1,22.95-37.71,22.79-59.55-.14-21.86-6.9-43.16-15.47-63.25-8.56-20.13-19-39.4-27.14-59.69-8.83-22.06-14.91-45.53-14.58-69.26.12-8.17,1.04-16.39,2.82-24.38-1.77,7.99-2.69,16.2-2.8,24.37-.33,23.74,5.74,47.21,14.57,69.27,8.14,20.29,18.58,39.56,27.15,59.68Z"/>
        <path class="st1" d="M747.18,733.65c.22.08.45.16.67.23h-.02c-.22-.07-.44-.14-.65-.23Z"/>
        <path class="st1" d="M1253.31,903.17c-.36,1.02-.75,2.04-1.18,3.02,0,.04,0,.1-.03.14-.04.09-.1.23-.17.32-.42.99-.85,1.97-1.28,2.93-.42.95-.92,1.9-1.41,2.85-.52.99-1.08,1.97-1.67,2.96-.59.98-1.18,1.9-1.78,2.85-1.21,1.87-2.56,3.68-3.97,5.42-.69.85-1.41,1.71-2.16,2.56-.5.56-1.02,1.12-1.61,1.67-.5.56-1.05,1.12-1.61,1.65-.69.65-1.38,1.31-2.07,1.93-.43.43-.89.82-1.35,1.18-.16.13-.31.27-.47.4-.16.13-.32.26-.48.4-.01.01-.03.02-.04.03-.35.28-.69.55-1.04.82-.15.14-.32.27-.49.4-.16.13-.32.25-.48.37l-.03.03-.02.02h0c-.18.14-.37.27-.55.39-.48.36-.96.71-1.45,1.05-.59.42-1.19.83-1.8,1.25-.16.1-.32.19-.49.33h-.03c-.03.06-.07.09-.13.09h-.04c-4.07,2.7-8.43,4.9-12.96,6.57-.04.03-.1.07-.13.07-.5.23-1.02.42-1.51.59-.17.06-.33.09-.5.16-.06.07-.16.1-.23.1-.42.2-.85.36-1.31.49-.1.07-.23.1-.33.13-1.06.4-2.1.74-3.16,1.07-.28.08-.56.17-.84.25-1.09.32-2.17.65-3.29.92-.49.13-.98.26-1.44.36-1.15.26-2.27.49-3.41.72-1.35.26-2.7.49-4.07.69h-.2c-1.18.16-2.4.29-3.58.39-.3.03-.59.03-.85.03-.63.07-1.28.1-1.94.14-.66.03-1.28.03-1.9.06-6.73.1-13.82-.95-19.27-4.69-.63-.43-1.25-.89-1.84-1.41-.23-.2-.49-.46-.72-.69-.27-.23-.5-.46-.73-.69-.92-.96-1.77-1.97-2.52-3.06-.37-.49-.69-1.01-1.02-1.57-.49-.79-.95-1.61-1.32-2.46-.36-.86-.72-1.71-1.01-2.6-.13-.29-.23-.62-.3-.95-.13-.46-.23-.92-.36-1.38v-.1c-.46-.49-.13-7.28-.1-8.07v-.07c.03-.69.1-1.38.17-2.1.13-1.38.32-2.76.59-4.14.13-.65.26-1.34.42-2.03.23-.89.43-1.81.69-2.69.33-1.22.69-2.4,1.09-3.58.92-2.86,1.97-5.65,3.05-8.44,9.68-25.01,20.71-49.44,33.06-73.17v-.03c1.18-2.37,2.43-4.7,3.67-7.03.86-1.61,1.71-3.22,2.63-4.82.89-1.61,1.81-3.22,2.72-4.8.04-.09.1-.23.2-.32.17-.3.36-.6.56-.89.23-.39.46-.79.69-1.18.2-.4.46-.79.69-1.18.56-.89,1.11-1.81,1.74-2.66.59-.89,1.18-1.78,1.8-2.63,1.22-1.77,2.53-3.51,3.94-5.19.56-.69,1.12-1.38,1.74-2.03.04-.07.1-.1.17-.17.69-.78,1.41-1.54,2.13-2.29,1.48-1.48,3.02-2.89,4.63-4.24,4.14-3.38,8.96-6.14,14.05-7.84,1.51-.53,3.02-.96,4.56-1.28h.04c.98-.23,1.97-.4,2.95-.56h.1c.56-.07,1.15-.13,1.71-.17.49-.06.95-.1,1.44-.1,1.05-.06,2.07-.06,3.12,0h.13c.56.07,1.12.1,1.67.17-.49,1.34-1.6,2.62-3.38,3.94-3.05,2.46-6.73,6.89-10.99,13.33-4.27,6.43-8.87,13.98-13.76,22.68-4.89,8.73-9.72,18.12-14.44,28.2-4.76,10.11-9.03,19.96-12.84,29.61-3.81,9.62-6.86,18.55-9.19,26.79-2.27,8.27-3.41,14.87-3.41,19.73,0,11.65,4.26,17.43,12.83,17.43s21.54-6.27,38.05-18.81c6.37-4.83,12.97-10.67,19.6-17.5t.06-.07Z"/>
        <path class="st3" d="M1493.08,871.47s-.02.11-.03.16c-.01.03-.02.06-.03.09-.06.17-.13.34-.19.51s-.13.34-.19.51c-.07.17-.13.34-.2.51-.07.16-.14.33-.2.5-.07.16-.14.33-.22.49-.07.17-.14.33-.21.49-.08.17-.15.33-.23.49-.08.16-.15.32-.23.48-.08.16-.16.32-.24.48-.08.16-.16.32-.24.48-.08.15-.17.31-.25.46-.09.16-.17.32-.26.47-.09.15-.17.31-.26.46-.09.15-.18.3-.27.46-.09.15-.18.3-.28.45-.09.15-.18.3-.28.44-.09.15-.19.3-.29.45-.09.14-.19.29-.29.44-.1.14-.2.28-.3.43-.1.14-.21.29-.31.43-.05.07-.1.14-.15.21-.03.04-.06.07-.08.11-.02.01-.03.03-.04.05-.01.01-.02.02-.02.03-.01,0-.02.01-.02.02v.04c-1.91,2.59-4.11,4.92-6.67,6.99-.91.76-1.83,1.49-2.77,2.19-5.13,3.91-10.57,7.08-16.27,9.53-6.73,2.92-13.23,5.19-19.5,6.86-6.23,1.71-11.06,3.15-14.41,4.37-.16.26-.62.98-1.15,1.77-.65-.49-1.18-1.18-1.41-1.97-.85-2.69.82-5.65,3.15-7.26.07-.06.17-.09.23-.16,2.46-1.61,5.45-2.1,8.31-2.66,1.97-.39,3.94-.85,5.87-1.35.99-.23,1.94-.49,2.89-.78.99-.27,1.94-.56,2.89-.86,2.53-.82,5.02-1.7,7.49-2.69.92-.36,1.87-.75,2.79-1.15.23-.1.46-.2.69-.3.34-.16.69-.31,1.03-.47.34-.14.67-.31,1-.48.92-.39,1.84-.82,2.73-1.31,2.69-1.31,5.35-2.76,7.91-4.33.14-.09.29-.17.44-.27.68-.41,1.37-.84,2.05-1.27.86-.53,1.71-1.12,2.56-1.68,2.2-1.51,4.34-3.08,6.44-4.73,1.57-1.24,3.08-2.52,4.56-3.87.25-.21.49-.43.74-.65.2-.18.41-.36.61-.54.08-.08.17-.16.26-.24.95-.87,1.88-1.76,2.79-2.67.02-.05.05-.11.06-.16Z"/>
        <path class="st1" d="M1376.28,913.39c-4.56-.33-11.82-.2-19.83.72h-.03c-3.32.59-6.8,1.21-10.41,2.04-4.27.92-8.24,1.81-11.95,2.76-1.74.46-3.41.98-4.96,1.58-.76.3-1.51.59-2.23.95-.79.36-1.54.72-2.27,1.12-5.25,2.76-9.19,6.27-10.7,10.67-1.25,3.45-.95,7.45,1.38,12.08-34.99-22.85,47.67-50.72,60.99-31.91Z"/>
        <path class="st1" d="M1493.68,869.82c-.18.57-.36,1.11-.6,1.65-.01.05-.04.11-.06.16-.91.91-1.84,1.8-2.79,2.67-.09.08-.18.16-.26.24-.2.18-.41.36-.61.54-.25.22-.49.44-.74.65-1.48,1.35-2.99,2.63-4.56,3.87-2.1,1.65-4.24,3.22-6.44,4.73-.85.56-1.7,1.15-2.56,1.68-.68.43-1.37.86-2.05,1.27-.15.1-.3.18-.44.27-2.6,1.54-5.22,2.99-7.91,4.33-.89.46-1.81.89-2.73,1.31-.33.16-.67.32-1,.48-.34.16-.69.31-1.03.47-.23.1-.46.2-.69.3-.92.4-1.87.79-2.79,1.15-2.47.99-4.96,1.87-7.49,2.69-.95.3-1.9.59-2.89.86-.95.29-1.9.55-2.89.78-1.93.5-3.9.96-5.87,1.35-2.86.56-5.85,1.05-8.31,2.66-.06.07-.16.1-.23.16-2.33,1.61-4,4.57-3.15,7.26.23.79.76,1.48,1.41,1.97-.49.75-.95,1.48-1.41,2.2-.1.1-.16.19-.23.29-9.03,13.63-18.71,24.56-29.12,32.86-11.45,9.2-22.88,15.53-34.2,19.04-11.3,3.52-21.9,4.6-31.81,3.22-3.19-.43-6.21-1.08-9-1.97-6.04-1.8-11.19-4.59-15.56-8.34-3.38-2.79-5.68-6.37-6.83-10.76,13.76,11.26,34.21,13.65,51.41,8.01,19.86-6.5,35.72-21.93,47.57-39.17.95-1.41,1.9-2.82,2.79-4.27.13-.13.2-.29.3-.42.72-1.12,1.41-2.23,2.1-3.38,2.69-4.57,5.18-9.29,7.45-14.12.33-.72.65-1.48.98-2.23.59-1.32,1.15-2.63,1.68-3.94.62-1.54,1.24-3.12,1.84-4.7.49-1.31.95-2.69,1.41-4.03.46-1.35.92-2.73,1.31-4.11.11-.33.21-.66.31-.99.31-.99.59-2.01.84-3.01.39-1.35.75-2.69,1.05-4.04.36-1.35.66-2.72.92-4.1.29-1.38.56-2.76.82-4.14.2-1.21.39-2.46.59-3.68,0-.09.03-.19.03-.29,1.32-5.55,1.91-11.36,2.1-16.94.43-11.69-1.28-23.44-5.12-34.5-1.77-5.02-4-10.41-7.12-15.1-.23-.46-.56-.89-.85-1.32-.4-.52-.79-1.05-1.19-1.57-.36-.46-.75-.92-1.14-1.35-.37-.46-.76-.88-1.19-1.28-.82-.85-1.67-1.64-2.59-2.33-.92-.72-1.87-1.38-2.89-1.97-6.86-4-15.43-4.3-23.11-2.2-7.65,2.07-14.54,6.37-20.91,11.13-.79.59-1.58,1.22-2.33,1.84-4.53,3.77-8.24,7.81-12.41,12.15-4.96,5.51-7.98,11.42-9.52,17.79-.23.92-.43,1.84-.59,2.79-.23.33-.46.62-.69.95-1.02,1.41-4.04,6.2-7.45,11.69-4.93,7.88-10.64,17.23-12.41,19.96l-1.25,2.75c-6.4,14.68-12.24,29.97-17.4,45.86-3.58,10.94-6.95,22.06-10.08,33.42-1.44,5.18-2.82,10.41-4.16,15.69-.26,1.01-.52,2.02-.79,3.02-5.58,21.39-11.5,40.7-17.8,57.95-3.29,9.01-6.81,17.44-10.6,25.28-3.2,6.65-6.59,12.86-10.18,18.64-.59,1.05-1.24,2.07-1.9,3.08-5.74,8.93-12.01,16.65-18.94,23.18-.66.62-1.31,1.25-2,1.81-.1-.4-.17-.76-.2-1.15-.13-1.55.2-3.09.53-4.6,2.06-9.35,4.46-18.68,7.15-27.9,1.35-4.53,2.76-9.06,4.24-13.56.16-.5.32-1,.47-1.51.17-.56.33-1.12.49-1.69.2-.71.39-1.43.59-2.15.29-1.08.58-2.15.89-3.22.1-.35.2-.69.31-1.04.02-.05.03-.11.05-.16.08-.29.17-.58.27-.88.08-.25.16-.5.24-.75s.17-.5.26-.75c0-.03,0-.06.02-.09,0-.02.01-.05.02-.07,4.17-11.92,8.34-23.87,12.47-35.82,3.94-11.19,7.81-22.38,11.72-33.55.92-2.59,1.81-5.18,2.73-7.78.63-1.79,1.25-3.58,1.88-5.37.83-2.39,1.67-4.78,2.5-7.16,7.26-20.8,14.5-41.58,21.75-62.38.1-.26.19-.49.26-.72-.2.3-.39.59-.62.89,7.55-22.2,16.25-43.96,26.06-65.27,6.86-14.87,14.45-29.77,26-41.36,7.39-7.38,16.71-13.33,26.72-16.08.07.92-.49,1.93-1.57,3.02-2.76,2.46-6.04,6.33-9.85,11.72-3.84,5.35-7.62,10.93-11.26,16.74-3.68,5.78-6.73,11-9.19,15.56-.82,1.54-1.48,2.85-1.97,3.97-.04.07-.04.1-.07.16-.95,2.14-1.34,3.52-1.15,4.14,0,0,0-.03.04-.03,0-.03.03-.03.03-.07.06-.06.1-.1.16-.16.07-.1.17-.2.26-.3.17-.19.33-.42.53-.62,3.71-4.24,7.55-8.6,11.62-13.07,4.43-4.92,9.36-9.25,14.71-13.09,5.32-3.78,11.16-6.96,17.4-9.43,4.26-1.64,8.89-2.66,13.95-3.02,2.36-.19,4.82-.26,7.35-.16,12.54.29,22.55,3.97,30.07,11,7.45,7.05,12.74,16.44,15.79,28.2,3.05,11.78,3.84,25.24,2.33,40.37-1.54,15.14-5.22,31.12-11.03,47.93,3.97-.62,8.64-1.61,13.99-2.95,5.35-1.38,10.86-3.19,16.51-5.29,3.58-1.37,7.1-2.87,10.56-4.55,2.01-.96,3.99-1.98,5.95-3.06,5.32-2.89,10.01-6.47,13.99-10.74Z"/>
        <path class="st3" d="M1419.22,805.81c-1.77-5.02-4-10.41-7.12-15.1-.3-.46-.56-.89-.85-1.32-.4-.52-.79-1.05-1.19-1.57-.36-.46-.75-.92-1.14-1.35-.37-.46-.76-.88-1.19-1.28-.82-.85-1.67-1.64-2.59-2.33-.92-.72-1.87-1.38-2.89-1.97-6.86-4-15.43-4.3-23.11-2.2-7.65,2.07-14.54,6.37-20.91,11.13-.79.59-1.58,1.22-2.33,1.84-4.53,3.77-8.24,7.81-12.41,12.15-4.96,5.51-7.98,11.42-9.52,17.79-.23.92-.43,1.84-.59,2.79,5.22-7.22,9.91-13,14.02-17.43,3.05-3.65,6.53-7,10.53-10.08,3.98-3.05,8.01-5.65,12.15-7.78,4.14-2.14,8.11-3.68,11.95-4.6,3.77-.88,7.25-.75,10.31.5,1.18.52,2.3,1.14,3.31,1.9,3.12,2.3,5.39,5.71,6.77,10.21,1.83,5.97,2.52,12.93,2.06,20.88-.46,7.94-1.67,16.35-3.67,25.24-1.97,8.86-4.27,17.17-6.9,24.95-2.59,7.81-5.25,14.54-8.01,20.19-.23.49-.46.95-.72,1.41-2.4,4.86-4.46,8.01-6.17,9.39-.79,0-1.61,0-2.46.03-5.68.1-12.54.56-20.68,1.35-9.33.88-18.39,2.89-27.28,5.94-8.28,2.76-14.74,6.6-19.5,11.46-4.73,4.92-7.92,10.01-9.62,15.36-1.68,5.35-2,10.51-.92,15.36.1.4.2.79.29,1.19,13.76,11.26,34.21,13.65,51.41,8.01,19.86-6.5,35.72-21.93,47.57-39.17.95-1.41,1.9-2.82,2.79-4.27.13-.13.2-.29.3-.42.72-1.12,1.41-2.23,2.1-3.38,2.69-4.57,5.18-9.29,7.45-14.12.33-.72.65-1.48.98-2.23.59-1.32,1.15-2.63,1.68-3.94.62-1.54,1.24-3.12,1.84-4.7.49-1.31.95-2.69,1.41-4.03.46-1.35.92-2.73,1.31-4.11.11-.33.21-.66.31-.99.3-.99.57-2.01.84-3.01.36-1.35.72-2.69,1.05-4.04.33-1.35.62-2.72.92-4.1.29-1.38.56-2.76.82-4.14.2-1.21.39-2.46.59-3.68,0-.09.03-.19.03-.29,1.32-5.55,1.91-11.36,2.1-16.94.43-11.69-1.28-23.44-5.12-34.5ZM1360.92,935.61c-6.56,5.97-12.93,9.72-19.04,11.26-10.08,2.43-17.5,2.72-22.22.92-1.78-.69-3.25-1.55-4.37-2.5-34.99-22.85,47.67-50.72,60.99-31.91-3.67,8.87-8.79,16.29-15.36,22.23Z"/>
        <path class="st3" d="M895.77,775.54h-.02c-1.68-.2-3.37-.26-5.06-.2-.23.01-.46.02-.69.04-.69.03-1.38.08-2.07.17-.34.04-.69.08-1.03.12-.66.09-1.32.2-1.98.33-.21.04-.41.08-.62.12-.36.07-.72.15-1.08.24-.34.08-.68.17-1.02.26-.1.02-.2.04-.3.07-.28.08-.55.16-.83.24-.36.1-.71.21-1.07.32-.71.23-1.42.48-2.12.74h-.01c-.7.26-1.39.54-2.07.84-.35.15-.69.3-1.03.46-.69.31-1.37.64-2.04.99-.33.17-.66.35-1,.53h-.01c-.65.36-1.31.74-1.95,1.13-.32.19-.64.39-.96.6-.32.2-.64.41-.95.62-.63.41-1.25.85-1.86,1.3-.26.19-.51.38-.77.58-.49.36-.96.74-1.43,1.13-.22.18-.44.36-.65.54-.22.19-.44.38-.66.58-.27.23-.53.47-.79.72-.28.25-.56.51-.83.78-.28.26-.55.53-.82.8h-.01c-.32.32-.63.64-.93.97-.75.78-1.47,1.59-2.17,2.41-.56.66-1.12,1.34-1.66,2.02-.17.21-.34.43-.5.64-.54.71-1.07,1.42-1.59,2.14,0,0-.01,0-.01.01-1.19,1.64-2.31,3.34-3.36,5.08,0,0-.01,0-.01.01-1.07,1.73-2.08,3.51-3.03,5.32,0,0,0,0,0,.01-.26.48-.51.96-.75,1.45-.45.88-.9,1.77-1.33,2.66-.45.92-.89,1.85-1.33,2.79-.65,1.4-1.29,2.82-1.9,4.24-1.86,4.26-3.57,8.59-5.26,12.89-7.19,18.32-14.41,36.61-21.63,54.92-3.83,9.74-7.7,19.61-9.91,29.81-.65,3.01-1.16,6.05-1.48,9.13-.1.85-.17,1.74-.2,2.59-.03.82-.06,1.64-.06,2.46,0,.07,0,.14.01.21-.01.03,0,.07,0,.1-.11,4.14.34,8.29,1.64,12.18.01.03.02.07.03.1.02.07.04.15.06.22.03.03.06.09.06.16.19.66.4,1.31.64,1.96.13.36.26.73.39,1.08.26.72.56,1.43.88,2.13.77,1.75,1.68,3.42,2.73,5v.02c.42.63.85,1.23,1.3,1.82.84,1.13,1.77,2.2,2.77,3.19.33.34.67.67,1.02.98.28.26.56.51.85.75t.01,0c.57.48,1.15.94,1.76,1.36.47.35.96.68,1.46.99.03.03.06.05.09.06.29.18.58.35.87.52,1.5.88,3.1,1.63,4.81,2.22.34.12.68.23,1.04.35.34.12.69.22,1.05.32.06,0,.1.03.16.03-1.44.33-3.08.62-4.91.82-3.8.46-8.1.69-12.86.69s-9.23-.69-13.5-2.07c-4.26-1.38-7.97-3.45-10.99-6.2-2.72-2.46-4.4-5.85-4.94-10.22-.07-.54-.12-1.1-.15-1.67-.3-6.1.39-13.69,2.1-22.72.84-4.56,1.89-9.28,3.13-14.15,1.22-4.76,2.62-9.67,4.19-14.73,3.22-10.25,6.96-20.78,11.23-31.65,4.3-10.83,8.86-21.24,13.75-31.19,4.89-9.91,9.95-18.97,15.17-27.08,5.15-8.07,10.21-14.71,15.13-19.92,5.81-5.52,11.46-9.92,16.94-13.33,5.52-3.35,11.79-5.16,18.81-5.45h.92c7.32-.33,11.92,1.05,13.75,4.07.83,1.44,1.32,2.59,1.45,3.45Z"/>
        <path class="st3" d="M805.36,946.07c-.24-.65-.45-1.3-.64-1.96,0-.07-.03-.13-.06-.16-.02-.07-.04-.15-.06-.22.02.07.05.14.07.21.04.03.07.1.07.17.19.66.4,1.31.62,1.96Z"/>
        <path class="st3" d="M806.63,949.28c-.32-.7-.62-1.41-.88-2.13.28.72.57,1.43.88,2.13Z"/>
        <path class="st3" d="M809.36,954.28c-1.05-1.58-1.96-3.25-2.73-5,.79,1.74,1.7,3.42,2.73,5Z"/>
        <path class="st3" d="M813.43,959.31c-1-.99-1.93-2.06-2.77-3.19.86,1.12,1.78,2.19,2.77,3.19Z"/>
        <path class="st3" d="M824.3,966.19c-1.71-.59-3.31-1.34-4.81-2.22,1.5.86,3.1,1.61,4.81,2.22Z"/>
        <path class="st3" d="M826.55,966.89c-.06,0-.1-.03-.16-.03-.36-.1-.71-.2-1.05-.32.34.1.7.21,1.06.31.06,0,.09.03.15.04Z"/>
        <path class="st3" d="M836.2,832.23c1.69-4.3,3.4-8.63,5.26-12.89-1.84,4.27-3.55,8.6-5.24,12.89-7.19,18.32-14.41,36.6-21.63,54.92-3.83,9.74-7.7,19.61-9.91,29.81-.65,3.01-1.16,6.05-1.48,9.12-.1.86-.17,1.74-.2,2.6-.03.82-.07,1.64-.07,2.46v.21c-.01-.07-.01-.14-.01-.21,0-.82.03-1.64.06-2.46.03-.85.1-1.74.2-2.59.32-3.08.83-6.12,1.48-9.13,2.21-10.2,6.08-20.07,9.91-29.81,7.22-18.31,14.44-36.6,21.63-54.92Z"/>
        <path class="st3" d="M846.78,808.19c.95-1.81,1.96-3.59,3.03-5.32-1.06,1.74-2.06,3.51-3.03,5.32Z"/>
        <path class="st3" d="M849.82,802.86c1.05-1.74,2.17-3.44,3.36-5.08-1.18,1.65-2.3,3.35-3.36,5.08Z"/>
        <path class="st3" d="M860.05,789.59c-.32.32-.63.65-.94.97.3-.33.61-.65.93-.97h.01Z"/>
        <path class="st1" d="M1002.48,911.48c-.6,1.18-1.19,2.33-1.84,3.48l-.69,1.18c-.76,1.31-1.58,2.63-2.43,3.88-.62.95-1.28,1.87-1.97,2.79-1.12,1.51-2.27,2.95-3.51,4.36-.56.66-1.12,1.31-1.71,1.94-.49.52-.99,1.05-1.48,1.54-3.84,2.96-7.68,5.75-11.26,7.98t-.06.06c-.69.43-1.35.86-2.04,1.25-6.89,4.1-14.38,7.39-22.16,9.13-3.67.82-7.42,1.28-11.22,1.34-4.27.07-8.51-.49-12.61-1.57h-.07c-2.36-.63-4.66-1.45-6.89-2.4-.1-.13-.2-.23-.29-.36-1.29-1.51-2.63-3.05-3.85-4.66-1.51-1.94-2.62-4.04-3.38-6.24v-.03c-3.9-10.8-.06-24.06,2.56-35.09,4.96-20.98,16.45-39.69,26.76-58.63,4.33-7.95,8.47-16.02,11.85-24.43,2.85-7.06,7.48-14.54,5.42-22.39-1.38-5.35-5.39-9.94-10.44-12.11-11.99-5.09-25.22,3.91-35,9.98-12.05,7.42-23.47,15.79-34.2,25.05-9.56,8.24-18.62,17.3-25.02,28.2-3.87,6.59-6.7,13.95-7.88,21.5-3.67,5.61-6.92,11.23-9.81,16.81-10.71,22.02-16.09,40.21-16.25,54.56-.04,2.56.03,4.92.23,7.09.75,10.04,3.64,16.08,8.7,18.12,1.15.29.78.88-1.05,1.7-.1.04-.23.1-.33.14-1.12.49-2.46.88-4.01,1.24-.06-.01-.09-.04-.15-.04-.36-.1-.72-.21-1.06-.31-.36-.12-.7-.23-1.04-.35-1.71-.61-3.31-1.36-4.81-2.22-.29-.17-.58-.34-.87-.52-.03-.01-.06-.03-.09-.06-.5-.31-.99-.64-1.46-.99-.61-.42-1.19-.88-1.76-1.36t-.01,0c-.29-.24-.57-.49-.85-.75-.35-.31-.69-.64-1.02-.98-.99-1-1.91-2.07-2.77-3.19-.45-.59-.88-1.19-1.3-1.82v-.02c-1.03-1.58-1.94-3.26-2.73-5-.31-.7-.6-1.41-.88-2.13-.13-.35-.26-.72-.39-1.08-.22-.65-.43-1.3-.62-1.96,0-.07-.03-.14-.07-.17-.02-.07-.05-.14-.07-.21,0-.03-.02-.07-.03-.1-1.3-3.89-1.75-8.04-1.64-12.18,0-.03-.01-.07,0-.1v-.21c0-.82.04-1.64.07-2.46.03-.86.1-1.74.2-2.6.32-3.07.83-6.11,1.48-9.12,2.21-10.2,6.08-20.07,9.91-29.81,7.22-18.32,14.44-36.6,21.63-54.92,1.69-4.29,3.4-8.62,5.24-12.89.61-1.42,1.25-2.84,1.9-4.24.44-.94.88-1.87,1.33-2.79.43-.89.88-1.78,1.33-2.66.24-.49.49-.97.75-1.45,0-.01,0-.01,0-.01.97-1.81,1.97-3.58,3.03-5.32,0-.01.01-.01.01-.01,1.06-1.73,2.18-3.43,3.36-5.08,0-.01.01-.01.01-.01.52-.72,1.05-1.43,1.59-2.14.16-.21.33-.43.5-.64.54-.68,1.1-1.36,1.66-2.02.7-.82,1.42-1.63,2.17-2.41.31-.32.62-.65.94-.97.27-.27.54-.54.82-.8.27-.27.55-.53.83-.78.26-.25.52-.49.79-.72.22-.2.44-.39.66-.58.21-.18.43-.36.65-.54.47-.39.94-.77,1.43-1.13.26-.2.51-.39.77-.58.61-.45,1.23-.89,1.86-1.3.31-.21.63-.42.95-.62.32-.21.64-.41.96-.6.64-.39,1.3-.77,1.95-1.13h.01c.34-.18.67-.36,1-.53.67-.35,1.35-.68,2.04-.99.34-.16.68-.31,1.03-.46.68-.3,1.37-.58,2.07-.84h.01c.7-.26,1.41-.51,2.12-.74.36-.11.71-.22,1.07-.32.28-.08.55-.16.83-.24.1-.03.2-.05.3-.07.34-.09.68-.18,1.02-.26.36-.09.72-.17,1.08-.24.21-.04.41-.08.62-.12.66-.13,1.32-.24,1.98-.33.34-.04.69-.08,1.03-.12.69-.09,1.38-.14,2.07-.17.23-.02.46-.03.69-.04,1.69-.06,3.38,0,5.06.2.17,1.05-.16,1.74-.98,2.07-3.68,1.57-7.98,5.61-12.84,12.18-4.92,6.56-9.48,13.46-13.75,20.65-4.3,7.15-7.82,13.52-10.57,19.04-2.76,5.48-3.65,8.11-2.76,7.74,9.19-10.67,18.97-20.28,29.35-28.85,10.4-8.6,21.27-16.65,32.6-24.33,4.85-3.35,10.43-6.3,16.7-8.93,6.28-2.59,12.41-4.43,18.36-5.48,5.94-1.08,11.62-1.25,16.97-.49,5.35.79,9.55,2.76,12.6,5.97,3.06,3.22,4.76,7.78,5.06,13.76.29,5.97-1.38,13.65-5.06,23.14-2.75,7.03-6.33,14.94-10.8,23.64-4.43,8.7-8.83,17.72-13.26,27.02-4.43,9.35-8.34,18.67-11.69,28.03-3.38,9.29-5.22,18.09-5.51,26.36-.33,6.4.46,11.39,2.26,14.87.66,1.25,1.42,2.33,2.3,3.22,1.58,1.64,3.48,2.69,5.75,3.22.88.19,1.84.29,2.85.32,2.89.2,6.14-.23,9.75-1.24,4.93-1.38,10.08-3.58,15.6-6.67,6.73-3.64,13.16-8.53,19.27-14.64,1.54-1.54,3.02-3.08,4.53-4.66Z"/>
        <path class="st1" d="M805.36,946.07c-.24-.65-.45-1.3-.64-1.96,0-.07-.03-.13-.06-.16-.02-.07-.04-.15-.06-.22.02.07.05.14.07.21.04.03.07.1.07.17.19.66.4,1.31.62,1.96Z"/>
        <path class="st1" d="M806.63,949.28c-.32-.7-.62-1.41-.88-2.13.28.72.57,1.43.88,2.13Z"/>
        <path class="st1" d="M809.36,954.28c-1.05-1.58-1.96-3.25-2.73-5,.79,1.74,1.7,3.42,2.73,5Z"/>
        <path class="st1" d="M813.43,959.31c-1-.99-1.93-2.06-2.77-3.19.86,1.12,1.78,2.19,2.77,3.19Z"/>
        <path class="st1" d="M824.3,966.19c-1.71-.59-3.31-1.34-4.81-2.22,1.5.86,3.1,1.61,4.81,2.22Z"/>
        <path class="st1" d="M826.55,966.89c-.06,0-.1-.03-.16-.03-.36-.1-.71-.2-1.05-.32.34.1.7.21,1.06.31.06,0,.09.03.15.04Z"/>
        <path class="st1" d="M841.46,819.34c-1.84,4.27-3.55,8.6-5.24,12.89-7.19,18.32-14.41,36.6-21.63,54.92-3.83,9.74-7.7,19.61-9.91,29.81-.65,3.01-1.16,6.05-1.48,9.12-.1.86-.17,1.74-.2,2.6-.03.82-.07,1.64-.07,2.46v.21c-.01-.07-.01-.14-.01-.21,0-.82.03-1.64.06-2.46.03-.85.1-1.74.2-2.59.32-3.08.83-6.12,1.48-9.13,2.21-10.2,6.08-20.07,9.91-29.81,7.22-18.31,14.44-36.6,21.63-54.92,1.69-4.3,3.4-8.63,5.26-12.89Z"/>
        <path class="st1" d="M849.81,802.87c-1.06,1.74-2.06,3.51-3.03,5.32.95-1.81,1.96-3.59,3.03-5.32Z"/>
        <path class="st1" d="M853.18,797.78c-1.18,1.65-2.3,3.35-3.36,5.08,1.05-1.74,2.17-3.44,3.36-5.08Z"/>
        <path class="st1" d="M860.05,789.59c-.32.32-.63.65-.94.97.3-.33.61-.65.93-.97h.01Z"/>
        <path class="st3" d="M1361.81,750.59c-3.22-1.51-10.02-1.05-20.39,1.38-10.73,2.76-20.52,10.01-29.38,21.8-8.86,11.75-17.14,26.13-24.75,43.13-7.65,16.94-14.84,35.59-21.57,55.94-2.79,8.41-5.55,16.74-8.37,25.08v.1s.03-.07.03-.1c.04.23.04.43.04.66h-.04c-.1.06-.19.13-.29.2h-.04c-.06.23-.16.49-.23.72-1.14,1.21-2.33,2.46-3.51,3.61v.06c-.36,1.02-.75,2.04-1.18,3.02,0,.04,0,.1-.03.14-.04.09-.1.23-.17.32-.36.99-.82,1.97-1.28,2.93-.42.95-.92,1.9-1.41,2.85-.52.99-1.08,1.97-1.67,2.96-.59.98-1.18,1.9-1.78,2.85-1.21,1.87-2.56,3.68-3.97,5.42-.69.85-1.41,1.71-2.16,2.56-.5.56-1.02,1.12-1.61,1.67-.5.56-1.05,1.12-1.61,1.65-.69.65-1.38,1.31-2.07,1.93-.43.43-.89.82-1.35,1.18-.16.13-.31.27-.47.4-.15.13-.31.26-.47.4h-.01s-.03.02-.04.03c-.35.28-.69.55-1.04.82-.15.14-.32.27-.49.4-.16.13-.32.25-.48.37l-.03.03-.02.02h0c-.18.14-.37.27-.55.39-.48.36-.96.71-1.45,1.05-.59.42-1.19.83-1.8,1.25-.16.1-.32.19-.49.33h-.03c-.03.06-.07.09-.13.09h-.04c-4.07,2.7-8.43,4.9-12.96,6.57-.04.03-.1.07-.13.07-.5.23-1.02.42-1.51.59-.17.06-.33.09-.5.16-.06.07-.16.1-.23.1-.42.2-.85.36-1.31.49-.1.07-.23.1-.33.13-1.06.4-2.1.74-3.16,1.07-.28.08-.56.17-.84.25-1.09.32-2.17.65-3.29.92-.49.13-.98.26-1.44.36-1.15.26-2.27.49-3.41.72-1.35.26-2.7.49-4.07.69h-.2c-1.18.16-2.4.29-3.58.39-.3.03-.59.03-.85.03-.63.07-1.28.1-1.94.14-.66.03-1.28.03-1.9.06-6.73.1-13.82-.95-19.27-4.69-.63-.43-1.25-.89-1.84-1.41-.23-.2-.49-.46-.72-.69-.27-.23-.5-.46-.73-.69-.92-.96-1.77-1.97-2.52-3.06-.37-.49-.69-1.01-1.02-1.57-.49-.79-.95-1.61-1.32-2.46-.39-.86-.75-1.71-1.01-2.6-.13-.29-.23-.62-.3-.95-.13-.46-.23-.92-.36-1.38v-.1c-.46-.49-.13-7.28-.1-8.07v-.07c.03-.69.1-1.38.17-2.1.13-1.38.32-2.76.59-4.14.13-.65.26-1.34.42-2.03.23-.89.43-1.81.69-2.69.33-1.22.69-2.4,1.09-3.58.92-2.86,1.97-5.65,3.05-8.44,9.68-25.01,20.71-49.44,33.06-73.17v-.03c1.18-2.37,2.43-4.7,3.67-7.03.86-1.61,1.71-3.22,2.63-4.82.85-1.61,1.74-3.22,2.72-4.8.04-.09.1-.23.2-.32.36-.69.79-1.38,1.25-2.07.2-.4.46-.79.69-1.18.56-.89,1.11-1.81,1.74-2.66.56-.89,1.15-1.78,1.8-2.63,1.22-1.77,2.53-3.51,3.94-5.19.56-.69,1.12-1.38,1.74-2.03.04-.07.1-.1.17-.17.65-.78,1.41-1.57,2.13-2.29,1.48-1.51,3.02-2.93,4.63-4.24,4.14-3.38,8.96-6.14,14.05-7.84,1.51-.53,3.02-.96,4.56-1.28h.04c.98-.23,1.97-.43,2.95-.56h.1c.56-.07,1.15-.13,1.71-.17.49-.06.95-.1,1.44-.1,1.05-.06,2.07-.06,3.12,0h.13c.56,0,1.12.07,1.67.14.23-.53.33-1.05.33-1.58,0-2.1-1.08-3.94-3.25-5.45-2.13-1.58-5.02-2.33-8.7-2.33-6.73,0-13.69,1.84-20.88,5.51-7.15,3.65-13.82,9.49-19.92,17.4-3.05-8.53-7.68-14.47-13.76-17.89-6.1-3.35-13-5.02-20.64-5.02-10.74,0-22.1,2.46-34.15,7.35-12.11,4.89-24.19,11.46-36.24,19.7-12.08,8.27-23.7,17.83-34.86,28.69-2.5,2.43-4.96,4.89-7.32,7.39-8.24,8.6-15.66,17.49-22.29,26.75-8.54,11.95-15.36,24.03-20.35,36.24-1.81,4.37-3.32,8.67-4.44,12.91-.29.98-.52,1.93-.75,2.88-.36.37-.72.76-1.08,1.12-.6,1.18-1.19,2.33-1.84,3.48l-.69,1.18c-.76,1.31-1.58,2.63-2.43,3.88-.62.95-1.28,1.87-1.97,2.79-1.12,1.51-2.27,2.95-3.51,4.36-.56.66-1.12,1.31-1.71,1.94-.49.52-.99,1.05-1.48,1.54-3.84,2.96-7.68,5.75-11.26,7.98t-.06.06c-.69.43-1.35.86-2.04,1.25-6.89,4.1-14.38,7.39-22.16,9.13-3.67.82-7.42,1.28-11.22,1.34-4.27.07-8.51-.49-12.61-1.57h-.07c-2.36-.63-4.66-1.45-6.89-2.4-.1-.13-.2-.23-.29-.36-1.29-1.51-2.63-3.05-3.85-4.66-1.51-1.94-2.62-4.04-3.38-6.24v-.03c-3.9-10.8-.06-24.06,2.56-35.09,4.96-20.98,16.45-39.69,26.76-58.63,4.33-7.95,8.47-16.02,11.85-24.43,2.85-7.06,7.48-14.54,5.42-22.39-1.38-5.35-5.39-9.94-10.44-12.11-11.99-5.09-25.22,3.91-35,9.98-12.05,7.42-23.47,15.79-34.2,25.05-9.56,8.24-18.62,17.3-25.02,28.2-3.87,6.59-6.7,13.95-7.88,21.5,4.17-6.37,8.83-12.77,14.05-19.21,9.79-12.08,19.57-22.25,29.35-30.49,3.38-2.76,7.49-5.94,12.38-9.65,4.89-3.65,9.84-7.09,14.9-10.28,5.06-3.25,9.72-5.81,13.98-7.81,4.31-1.97,7.42-2.53,9.43-1.61,1.97.92,2.52,3.54,1.6,7.81-.95,4.27-4.13,10.97-9.65,20.16-9.19,15.92-16.64,29.28-22.45,40.15-5.81,10.83-10.41,19.99-13.76,27.51-3.41,7.48-5.97,13.75-7.81,18.77-1.84,5.06-3.22,9.88-4.13,14.48-1.25,6.4-1.74,12.54-1.61,18.35.16,5.78,1.31,11,3.48,15.56,2.1,4.6,5.48,8.41,10.07,11.46,4.57,3.05,10.71,5.05,18.32,5.97,5.29.63,9.62.43,14.71.07,0-.2.79-.03.79-.23,6.79-.59,13.42-2,19.89-4.37,11.75-4.26,22.85-10.9,33.26-19.92,3.61-3.15,10.6-8.74,15.69-13.4-.13.53-.3,1.05-.4,1.58.2,5.65,1.18,10.63,2.89,14.97,1.84,4.66,4.53,8.53,8.11,11.65,3.97,3.48,8.4,6.04,13.26,7.62,4.14,1.38,8.57,2.03,13.33,2.03,3.68,0,7.35-.46,11-1.38.56-.16,1.11-.29,1.64-.45,17.69-4.96,33.29-13.6,46.75-25.94,11.29-10.27,21.63-21.01,30.99-32.2,1.9-2.27,3.77-4.57,5.61-6.86.26-.33.52-.69.79-1.02-.07.13-.13.29-.2.43-.56,1.28-1.12,2.52-1.61,3.77-1.67,4.07-3.15,8.08-4.4,12.05-1.67,5.35-2.49,10.5-2.49,15.36,0,12.87,3.94,22.09,11.91,27.74,5.03,3.61,10.57,6.04,16.68,7.35.79.17,1.58.33,2.4.46,2.85.46,5.81.69,8.89.69,12.84,0,25.21-2.92,37.16-8.7,7.83-3.83,15.3-8.41,22.36-13.77,3.66-2.77,7.22-5.75,10.67-8.94,1.37-1.25,2.72-2.54,4.05-3.85,2.22-2.19,4.38-4.46,6.52-6.76.16-.19.36-.42.56-.62-.82,2.4-1.61,4.76-2.43,7.12-.21.61-.42,1.22-.62,1.83-.37,1.06-.73,2.13-1.09,3.18-6.18,17.82-12.43,34.57-18.71,50.24-5.11,12.7-10.49,23.62-16.19,32.76-1.98,3.19-4.01,6.17-6.07,8.93-2.03,2.86-4.13,5.52-6.24,8.01-.29.33-.59.66-.85.99.39.49.79,1.05,1.15,1.57,2,2.83,3.87,5.88,5.65,9.33.85,1.57,1.64,3.21,2.36,4.86,4.5,10.34,6.76,22.12,6.76,35.06v3.08c1.55-1.18,2.99-2.36,4.47-3.68l.03-.03c.49-.42.98-.88,1.48-1.34-.1-.4-.17-.76-.2-1.15-.13-1.55.2-3.09.53-4.6,2.06-9.35,4.46-18.68,7.15-27.9,1.35-4.53,2.76-9.06,4.24-13.56.16-.5.32-1,.47-1.51.17-.56.33-1.12.49-1.69.2-.71.39-1.43.59-2.15.29-1.08.58-2.15.89-3.22.1-.35.2-.69.31-1.04.02-.05.03-.11.05-.16.08-.29.17-.58.27-.88.08-.25.16-.5.24-.75s.17-.5.26-.75c0-.03,0-.06.02-.09,0-.02.01-.05.02-.07,4.17-11.92,8.34-23.87,12.47-35.82,3.94-11.19,7.81-22.38,11.72-33.55.92-2.59,1.81-5.18,2.73-7.78.63-1.79,1.25-3.58,1.88-5.37.83-2.39,1.67-4.78,2.5-7.16,7.26-20.8,14.5-41.58,21.75-62.38.1-.26.19-.49.26-.72-.2.3-.39.59-.62.89,7.55-22.2,16.25-43.96,26.06-65.27,6.86-14.87,14.45-29.77,26-41.36,7.39-7.38,16.71-13.33,26.72-16.08v-.14c-.1-1.05-1.02-2-2.72-2.82ZM1143.14,874.12v.07c0,.1-.03.19-.03.29v.1c-.13.23-.3.46-.36.72-4.56,14.94-6.3,21.6-6.9,24.03-.03.04-.03.07-.06.1-.07.1-.13.23-.2.33-.16.3-.36.59-.56.85-.19.27-.39.53-.59.82-.39.56-.78,1.09-1.24,1.61h-.04c-6.88,6.54-14.09,12.72-21.6,18.49-1.54,1.19-3.09,2.36-4.66,3.51-.08.06-.15.12-.22.18-.06.06-.12.12-.17.18-7.72,6.79-16.32,12.54-25.54,17.04-.04,0-.04.03-.07.03-1.54.75-3.12,1.48-4.69,2.13-.04.04-.1.04-.13.07-.63.33-1.25.66-1.91.95-.96.46-1.93.91-2.91,1.33-6.11,2.7-12.54,4.76-19.18,5.1-6.83.37-13.92-1.18-19.4-5.18-.72-.53-1.41-1.09-2.07-1.71-.36-.33-.72-.69-1.05-1.05-.17-.18-.34-.36-.51-.55-.5-.55-.98-1.14-1.4-1.75-.59-.78-1.11-1.61-1.6-2.49-.46-.86-.92-1.74-1.32-2.66-.39-.92-.72-1.84-1.05-2.79-.52-1.68-.92-3.38-1.18-5.16-.43-2.79-.49-5.61-.26-8.4.72-9.03,4.33-17.56,8.27-25.74.95-1.97,1.94-3.97,2.96-5.94.98-1.93,2.03-3.9,3.08-5.84,3.15-5.81,6.5-11.52,10.08-17.1,1.08-1.68,2.17-3.35,3.28-4.99,1.31-2.01,2.69-4.01,4.11-5.98,2.52-3.61,5.15-7.16,7.87-10.64,6.77-8.69,14.05-17,21.83-24.81,3.09-3.19,6.24-6.21,9.49-9.19,1.12-1.02,2.2-2.01,3.35-2.99.92-.79,1.84-1.58,2.76-2.37,13.29-11.09,28.36-19.95,44.91-24.03,4.1-.78,8.17-.72,12.04.07.36.07.69.13,1.05.23.43.1.89.2,1.32.33,1.21.33,2.43.75,3.61,1.21h.03c1.51-.19,2.96-.29,4.43-.29,6.44,0,10.84,1.28,13.3,3.9.98,1.02,1.74,2.2,2.33,3.52v.03c.88,1.94,1.31,4.2,1.31,6.76,0,5.48-1.38,11.23-4.1,17.17-2.76,5.98-5.39,11.1-7.78,15.36-6.44,11-13.86,22.95-22.26,35.79-2.07,3.18-4.2,6.3-6.37,9.35Z"/>
        <path class="st1" d="M1140.02,878.42c1.09-1.41,2.1-2.82,3.12-4.23,0,.1-.03.19-.03.29v.1c-.13.23-.3.46-.36.72-4.56,14.94-6.3,21.6-6.9,24.03-.03.04-.03.07-.06.1-.07.1-.13.23-.2.33-.16.3-.36.59-.56.85-.19.27-.39.53-.59.82-.42.56-.85,1.09-1.28,1.61-6.88,6.54-14.09,12.72-21.6,18.49-1.54,1.19-3.09,2.36-4.66,3.51-.08.06-.15.12-.22.18-.06.06-.12.12-.17.18-7.72,6.79-16.32,12.54-25.54,17.04-.04,0-.04.03-.07.03-1.54.75-3.12,1.48-4.69,2.13-.04.04-.1.04-.13.07-.63.33-1.25.66-1.91.95-.96.46-1.93.91-2.91,1.33-6.11,2.7-12.54,4.76-19.18,5.1-6.83.37-13.92-1.18-19.4-5.18-.72-.53-1.41-1.09-2.07-1.71-.36-.33-.72-.69-1.05-1.05-.17-.18-.34-.36-.51-.55-.49-.55-.95-1.14-1.4-1.75-.59-.78-1.11-1.61-1.6-2.49-.46-.86-.92-1.74-1.32-2.66-.39-.92-.72-1.84-1.05-2.79-.52-1.68-.92-3.38-1.18-5.16-.39-2.75-.46-5.61-.23-8.4.72-9.03,4.33-17.56,8.27-25.74.96-1.97,1.94-3.97,2.93-5.94.98-1.93,2.03-3.9,3.08-5.84,3.15-5.81,6.5-11.52,10.08-17.1,1.08-1.68,2.17-3.35,3.28-4.99,1.31-2.01,2.69-4.01,4.11-5.98,2.52-3.61,5.15-7.16,7.87-10.64,6.8-8.69,14.09-16.97,21.83-24.81,3.09-3.19,6.24-6.21,9.49-9.19,1.12-1.02,2.2-2.01,3.35-2.99.92-.79,1.84-1.58,2.76-2.37,13.29-11.09,28.36-19.95,44.91-24.03,4.1-.78,8.17-.72,12.04.07.36.07.69.13,1.05.23.43.1.89.2,1.32.33,1.21.33,2.43.75,3.61,1.21-6.86.73-13.79,3.22-20.95,7.45-8.73,5.22-17.39,11.89-25.93,20-8.57,8.11-16.74,17.26-24.52,27.47-7.82,10.28-14.77,20.42-20.85,30.5-6.14,10.14-11.26,19.57-15.36,28.46-4.14,8.87-6.67,16.19-7.62,22-.29,1.21-.42,2.36-.42,3.44v2.99c0,9.49,4.43,14.22,13.26,14.22s18.15-2.76,27.31-8.34c1.38-.86,2.76-1.74,4.14-2.69,10.57-7.33,20.78-16.48,30.72-27.48,4.76-5.29,9.43-10.87,13.86-16.61v-.04l.03-.03c1.41-1.8,2.76-3.58,4.1-5.41v-.04Z"/>
      </g>
    </g>
  </g>
</svg>